<?xml version="1.0" encoding="UTF-8"?>
<svg version="1.1" viewBox="0 0 370 200" xmlns="http://www.w3.org/2000/svg" xmlnsCc="http://creativecommons.org/ns#" xmlnsDc="http://purl.org/dc/elements/1.1/" xmlnsRdf="http://www.w3.org/1999/02/22-rdf-syntax-ns#">
<metadata>
<rdfRDF>
<ccWork rdfAbout="">
<dcFormat>image/svg+xml</dcFormat>
<dcType rdfResource="http://purl.org/dc/dcmitype/StillImage"/>
</ccWork>
</rdfRDF>
</metadata>
<path d="m0 79v34h18l2-0.0273 1-0.0547 2-0.30664 1-0.25 1-0.22266 2-0.61133 1.9727-0.94531 1.8047-1.2754 1.584-1.5293 0.75-0.85937 1.2773-1.918 0.5-1 0.69531-2 0.33203-2 0.05664-1 0.027344-2v-4l-0.083984-2-0.16602-1-0.22266-1-0.38867-1-1-2-0.61133-1-1.6113-1.916-1.916-1.584-2-1.0273-2-0.61133-1-0.22266-1-0.25-2-0.30469-2-0.083984h-3zm38 0v34h32v-9h-21v-4h19v-9h-19v-3h20v-9zm34 0v34h11v-17l1.25 1.5 1.1953 1.5547 0.75 0.94531 1.6094 2 0.80664 1 0.77734 1 0.80664 1 1.6094 2 0.80664 1 1.6113 1.9727 0.86133 0.91601 1.916 1.3887 2 0.61133 1 0.084 2 0.0273h6v-34h-11v17l-1.416-1.5-0.41797-0.55469-1.5547-1.9453-0.80664-1-1.6094-2-0.80664-1-1.5273-2-0.72266-1-0.77734-1-1.584-1.9727-0.86133-0.91602-1.916-1.3887-2-0.61133-2-0.11133h-3zm38 0v9h16l-1.668 1.4727-1.5547 1.6113-0.85937 0.94336-0.94531 0.97266-0.97266 1-6 6-1.9727 2-0.91601 1-1.3887 2-0.61133 2-0.11133 2v4h33v-9h-17l8-8 0.97266-1 0.94531-1 1.6934-2 0.77734-1 1.6387-1.8887 1.4727-1.334 1.5-0.77734v-8zm34 0v34h32v-9h-21v-4h19v-9h-19v-3h20v-9zm34 0v34h29v-9h-18v-25zm31 0v34h20l2-0.0273 1-0.0547 2-0.33594 2-0.60937 2-0.89063 1.8887-1.332 0.80469-0.83203 1.1953-1.918 0.69336-2 0.19531-1 0.11133-2-0.36133-2-0.38867-0.97266-0.41601-0.94336-1.1406-1.584-1.1641-0.97266-1.418-0.52734 1.418-1.5 0.38867-0.55469 0.75-1 0.94336-1.9453 0.38867-2v-1l-0.38867-2-0.44336-0.97266-0.55664-0.94336-1.582-1.6113-0.94531-0.61133-1.9727-1-1-0.38867-1-0.22266-1-0.16602-2-0.083984h-5zm-199 9h7l2 0.08398 1.9727 0.41602 0.94336 0.44531 0.83398 0.55469 0.75 0.75 1 1.7773 0.25 0.97266 0.22266 2v2l-0.08398 1-0.22266 1-0.38867 0.97266-0.61133 0.94531-1.6934 1.582-0.97266 0.55664-1 0.44336-2 0.41797-1 0.0547-2 0.02733h-5zm210 0h5l2 0.02734c0.9812 0.04154 1.8274 0.22042 2.6934 0.63867 2.1066 1.2283-0.32532 2.0253-1.75 2.2793-0.98076 0.034837-1.9622 0.041277-2.9434 0.054692h-5zm10.814 11.953s0.93811 0.68572 1.1387 1.418c0.15107 0.55151 0.0131 1.2522-0.37109 1.6758-0.386 0.4256-0.89704 0.66985-1.4531 0.81445-0.75959 0.0931-1.3151 0.10848-2.2227 0.15039l-1.9062-0.01172h-6v-4z" fill="#fff"/>
<path d="m267 75-2 0.083984-1 0.13867-1 0.19336-1 0.2793-2 0.69336-1 0.44531-1 0.44336-2 1.168-1 0.7207-1.9727 1.4727-0.94531 0.75-1.6641 1.6953-1.418 1.916-0.66797 1-0.66406 1-1.25 2-0.94531 2-0.30469 1-0.5293 2-0.25 1-0.30664 2-0.08203 2v1 2 2 1l0.02734 2 0.05469 1 0.33594 2 0.27539 1 0.72461 2 1.0254 1.9434 0.75 1 1.8066 2.0566h-249v7h370v-7h-81-21-3-1-1l-2-0.08203-2-0.41797-2-1-1.918-1.582-1.6094-1.918-1.1953-2-0.80468-2-0.25-1-0.41602-2-0.41797-2-0.13867-1-0.08203-1 0.2207-2 0.41797-2 0.41602-2 0.25-1 0.77734-2 0.52734-1 0.47266-1 1.2227-2 1.6094-1.9727 0.94531-0.94336 0.97266-0.83398 1-0.77734 2-1.1953 1-0.44336 2-0.80664 2-0.61133 2-0.33203 2-0.083984h1l2 0.083984 2 0.33203 1 0.2793 2 0.7207 1 0.5 1 0.58398 1.918 1.584 1.6094 1.916 1.1953 2 0.41601 1 0.38867 1 0.22266 1 0.19336 1 0.19531 2 0.0293 1 0.05469 1-0.00977 0.21289-0.07422 1.7871-0.2207 2-0.64063 2-1.3887 1.8887-1.8887 1.3887-0.94336 0.39063-1 0.2207-2.0566 0.11133-1-1v-2.0566l0.02734-1 0.05469-0.94336 0.30664-2 0.22266-1 0.19531-1 0.38672-2 0.19531-1 0.22266-1 0.30664-2 0.05469-0.94531 0.02734-1v-2.0547l-1-1h-4-2-2l-1 0.027344-1 0.05664-2 0.38867-1 0.38867-1 0.41602-1.918 1.1953-1.6641 1.6113-0.72461 0.94336-1.2754 1.9727-0.94531 2-0.30469 1-0.5293 2-0.25 1-0.30664 2-0.05469 1-0.02734 1 0.08203 2 0.39063 2 0.38867 0.97266 1 1.7773 0.61133 0.75 1.6094 1 1.918 0.41797 2 0.05469 1-0.08399 2-0.52734 0.97266-0.47266 1.6953-1.25 0.9707-1.2207 0.36133-1.418 1.4727 2.0273 0.80468 0.91602 1.75 1.334 1.9727 0.61133 1 0.08399 2 0.02734 2-0.08203 1-0.16797 1-0.22266 2-0.80468 0.97266-0.58399 0.94531-0.61133 0.85937-0.77734 0.80469-0.83203 1.3359-1.918 1-2 0.66406-2 0.33594-2 0.05469-1 0.02734-1v-2-2-1l-0.08203-2-0.14063-1-0.19531-1-0.60937-2-0.80469-2-1.0293-2-0.61133-1-1.6094-1.9727-0.94531-0.94336-1.9727-1.6113-1-0.61133-2-1.0273-1-0.44531-2-0.69336-1-0.2793-2-0.33203-1-0.05664-1-0.027344h-2-2-2-1zm102.38 3.9629c-3.023 0.16214-5.9405 0.037049-8.3789 0.037109h-2l-1 0.027344-2 0.30664-1 0.38867-2 1.3887-1 0.91602-2 1.9453-1 0.94336-1.9434 1.6387-1.5566 1.1953-1.5 1.25v-10h-11v34h11v-3.0566c0.0195-4.7917-0.04038-9.3779-0.05078-11.92l2.0508 1.9766 1.9727 2.0566 1.6387 1.9434 1.6113 2 0.85937 1 1.8359 2 0.80469 0.94336 0.80468 1 1.4727 2.0566h13l-0.33203-1.5-0.30664-0.55664-0.47266-1-1.3066-1.9434c-4.2281-4.9747-8.5603-9.2551-11.664-13.945l-0.39063-0.55469c-0.58683-1.8507 11.086-11.389 13.852-14.537zm-74.379 0.037109v34h11v-17l1.418 1.5 0.41406 0.55469 1.5566 1.9453 0.80469 1 1.6133 2 0.80469 1 0.77734 1 3.2227 4 0.77734 0.97266 0.83399 0.91601 1.8047 1.3887 0.97266 0.39063 1 0.2207 1 0.08399 2 0.02734h2 4v-34h-11v17l-1.418-1.5-0.41406-0.55469-0.83594-1-1.4707-1.9453-0.72266-1-0.77734-1-0.75-1-0.80469-1-1.6133-2-0.80469-1-1.5-1.9453-0.66601-1-0.47266-0.55469-0.75-1.5h-12zm-23 13-0.02734 2.0547-0.05469 1-0.33594 1.9453-0.58203 2-0.33203 1-0.36133 1-0.38867 1-1 1.918-1.3359 1.582-1.6094 1-0.94532 0.25-2.0273 0.25v-3.0566-1.9434l0.08203-2 0.39063-2 0.80468-1.9727 1.1953-1.7773 0.77734-0.75 1.7773-1 0.91602-0.25 1.5566-0.22266 1.5-0.027344z" fill="#e30613"/>
</svg>
