<?xml version="1.0" encoding="UTF-8" standalone="no"?>
<svg
   xmlns:dc="http://purl.org/dc/elements/1.1/"
   xmlns:cc="http://creativecommons.org/ns#"
   xmlns:rdf="http://www.w3.org/1999/02/22-rdf-syntax-ns#"
   xmlns:svg="http://www.w3.org/2000/svg"
   xmlns="http://www.w3.org/2000/svg"
   xmlns:sodipodi="http://sodipodi.sourceforge.net/DTD/sodipodi-0.dtd"
   xmlns:inkscape="http://www.inkscape.org/namespaces/inkscape"
   width="370"
   height="200"
   version="1.1"
   id="svg16"
   sodipodi:docname="denzelbank.svg"
   inkscape:version="1.0.2-2 (e86c870879, 2021-01-15)">
  <metadata
     id="metadata22">
    <rdf:RDF>
      <cc:Work
         rdf:about="">
        <dc:format>image/svg+xml</dc:format>
        <dc:type
           rdf:resource="http://purl.org/dc/dcmitype/StillImage" />
      </cc:Work>
    </rdf:RDF>
  </metadata>
  <defs
     id="defs20" />
  <sodipodi:namedview
     pagecolor="#ffffff"
     bordercolor="#666666"
     borderopacity="1"
     objecttolerance="10"
     gridtolerance="10"
     guidetolerance="10"
     inkscape:pageopacity="0"
     inkscape:pageshadow="2"
     inkscape:window-width="1366"
     inkscape:window-height="705"
     id="namedview18"
     showgrid="false"
     inkscape:zoom="1.9021172"
     inkscape:cx="214.13655"
     inkscape:cy="91.756053"
     inkscape:window-x="-8"
     inkscape:window-y="-8"
     inkscape:window-maximized="1"
     inkscape:current-layer="svg16"
     inkscape:document-rotation="0" />
  <path
     id="path172"
     style="display:inline;fill:#ffffff;stroke:none"
     d="m 0,79 v 34 h 15 2 1 l 2,-0.0273 1,-0.0547 2,-0.30664 1,-0.25 1,-0.22266 2,-0.61133 1.972656,-0.94531 1.804688,-1.27539 1.583984,-1.5293 0.75,-0.85937 1.277344,-1.91797 0.5,-1 0.695312,-2 0.332032,-2 0.05664,-1 L 36,97 V 95 93 L 35.916016,91 35.75,90 l -0.222656,-1 -0.388672,-1 -1,-2 L 33.527344,85 31.916016,83.083984 30,81.5 28,80.472656 26,79.861328 25,79.638672 24,79.388672 22,79.083984 20,79 h -1 -2 z m 38,0 v 34 h 32 v -9 H 49 v -4 H 68 V 91 H 49 v -3 h 20 v -9 z m 34,0 v 34 H 83 V 96 l 1.25,1.5 1.195312,1.554688 0.75,0.945312 1.609376,2 0.80664,1 0.777344,1 0.80664,1 1.609376,2 0.80664,1 1.611328,1.97266 0.861328,0.91601 1.916016,1.38867 2,0.61133 1,0.084 2,0.0273 h 2 4 V 79 H 97 V 96 L 95.583984,94.5 95.166016,93.945312 93.611328,92 92.804688,91 91.195312,89 90.388672,88 88.861328,86 88.138672,85 87.361328,84 85.777344,82.027344 84.916016,81.111328 83,79.722656 81,79.111328 79,79 h -1 -2 z m 38,0 v 9 h 16 l -1.66797,1.472656 -1.55469,1.611328 -0.85937,0.94336 L 120.97266,93 120,94 l -2,2 -2,2 -2,2 -1.97266,2 -0.91601,1 -1.38867,2 -0.61133,2 L 109,109 V 109.94336 113 h 33 v -9 h -17 l 6,-6 2,-2 0.97266,-1 0.94531,-1 1.69336,-2 0.77734,-1 1.63867,-1.888672 L 140.5,87.777344 142,87 v -8 z m 34,0 v 34 h 32 v -9 h -21 v -4 h 19 v -9 h -19 v -3 h 20 v -9 z m 34,0 v 34 h 29 v -9 H 189 V 79 Z m 31,0 v 34 h 17 2 1 l 2,-0.0273 1,-0.0547 2,-0.33594 2,-0.60937 2,-0.89063 1.88867,-1.33203 0.80469,-0.83203 1.19531,-1.91797 0.69336,-2 0.19531,-1 0.11133,-2 -0.36133,-2 -0.38867,-0.972656 -0.41601,-0.94336 L 240.58203,96.5 239.41797,95.527344 238,95 l 1.41797,-1.5 0.38867,-0.554688 0.75,-1 L 241.5,90 241.88867,88 V 87 L 241.5,85 241.05664,84.027344 240.5,83.083984 l -1.58203,-1.611328 -0.94531,-0.611328 -1.97266,-1 -1,-0.388672 L 234,79.25 233,79.083984 231,79 h -1 -1 -3 z M 10,88 h 5 2 l 2,0.08398 1.972656,0.41602 0.94336,0.445312 L 22.75,89.5 l 0.75,0.75 1,1.777344 L 24.75,93 l 0.222656,2 v 2 l -0.08398,1 -0.222656,1 -0.388672,0.972656 L 23.66602,100.91797 21.972656,102.5 21,103.05664 20,103.5 l -2,0.41797 -1,0.0547 L 15,104 H 13.054688 10 Z m 210,0 H 223.05664 225 l 2,0.02734 c 0.9812,0.04154 1.82744,0.220425 2.69336,0.638672 2.10662,1.228267 -0.32532,2.025288 -1.75,2.279296 C 226.9626,90.980145 225.98121,90.986585 225,91 H 223.05664 220 Z m 10.81445,11.953125 c 0,0 0.93811,0.685725 1.13867,1.417965 0.15107,0.55151 0.0131,1.25221 -0.37109,1.67579 -0.386,0.4256 -0.89704,0.66985 -1.45312,0.81445 -0.75959,0.0931 -1.31508,0.10848 -2.22266,0.15039 L 226,104 h -2 -4 v -4 z" />
  <path
     id="path164"
     style="display:inline;fill:#e30613;stroke:none"
     d="M 267 75 L 265 75.083984 L 264 75.222656 L 263 75.416016 L 262 75.695312 L 260 76.388672 L 259 76.833984 L 258 77.277344 L 256 78.445312 L 255 79.166016 L 253.02734 80.638672 L 252.08203 81.388672 L 250.41797 83.083984 L 249 85 L 248.33203 86 L 247.66797 87 L 246.41797 89 L 245.47266 91 L 245.16797 92 L 244.63867 94 L 244.38867 95 L 244.08203 97 L 244 99 L 244 100 L 244 102 L 244 104 L 244 105 L 244.02734 107 L 244.08203 108 L 244.41797 110 L 244.69336 111 L 245.41797 113 L 246.44336 114.94336 L 247.19336 115.94336 L 249 118 L 0 118 L 0 125 L 370 125 L 370 118 L 289 118 L 268 118 L 265 118 L 264 118 L 263 118 L 261 117.91797 L 259 117.5 L 257 116.5 L 255.08203 114.91797 L 253.47266 113 L 252.27734 111 L 251.47266 109 L 251.22266 108 L 250.80664 106 L 250.38867 104 L 250.25 103 L 250.16797 102 L 250.38867 100 L 250.80664 98 L 251.22266 96 L 251.47266 95 L 252.25 93 L 252.77734 92 L 253.25 91 L 254.47266 89 L 256.08203 87.027344 L 257.02734 86.083984 L 258 85.25 L 259 84.472656 L 261 83.277344 L 262 82.833984 L 264 82.027344 L 266 81.416016 L 268 81.083984 L 270 81 L 271 81 L 273 81.083984 L 275 81.416016 L 276 81.695312 L 278 82.416016 L 279 82.916016 L 280 83.5 L 281.91797 85.083984 L 283.52734 87 L 284.72266 89 L 285.13867 90 L 285.52734 91 L 285.75 92 L 285.94336 93 L 286.13867 95 L 286.16797 96 L 286.22266 97 L 286.21289 97.212891 L 286.13867 99 L 285.91797 101 L 285.27734 103 L 283.88867 104.88867 L 282 106.27734 L 281.05664 106.66797 L 280.05664 106.88867 L 278 107 L 277 106 L 277 103.94336 L 277.02734 102.94336 L 277.08203 102 L 277.38867 100 L 277.61133 99 L 277.80664 98 L 278.19336 96 L 278.38867 95 L 278.61133 94 L 278.91797 92 L 278.97266 91.054688 L 279 90.054688 L 279 88 L 278 87 L 274 87 L 272 87 L 270 87 L 269 87.027344 L 268 87.083984 L 266 87.472656 L 265 87.861328 L 264 88.277344 L 262.08203 89.472656 L 260.41797 91.083984 L 259.69336 92.027344 L 258.41797 94 L 257.47266 96 L 257.16797 97 L 256.63867 99 L 256.38867 100 L 256.08203 102 L 256.02734 103 L 256 104 L 256.08203 106 L 256.47266 108 L 256.86133 108.97266 L 257.86133 110.75 L 258.47266 111.5 L 260.08203 112.5 L 262 112.91797 L 264 112.97266 L 265 112.88867 L 267 112.36133 L 267.97266 111.88867 L 269.66797 110.63867 L 270.63867 109.41797 L 271 108 L 272.47266 110.02734 L 273.27734 110.94336 L 275.02734 112.27734 L 277 112.88867 L 278 112.97266 L 280 113 L 282 112.91797 L 283 112.75 L 284 112.52734 L 286 111.72266 L 286.97266 111.13867 L 287.91797 110.52734 L 288.77734 109.75 L 289.58203 108.91797 L 290.91797 107 L 291.91797 105 L 292.58203 103 L 292.91797 101 L 292.97266 100 L 293 99 L 293 97 L 293 95 L 293 94 L 292.91797 92 L 292.77734 91 L 292.58203 90 L 291.97266 88 L 291.16797 86 L 290.13867 84 L 289.52734 83 L 287.91797 81.027344 L 286.97266 80.083984 L 285 78.472656 L 284 77.861328 L 282 76.833984 L 281 76.388672 L 279 75.695312 L 278 75.416016 L 276 75.083984 L 275 75.027344 L 274 75 L 272 75 L 270 75 L 268 75 L 267 75 z M 369.37891 78.962891 C 366.3559 79.125034 363.43837 78.99994 361 79 L 359 79 L 358 79.027344 L 356 79.333984 L 355 79.722656 L 353 81.111328 L 352 82.027344 L 350 83.972656 L 349 84.916016 L 347.05664 86.554688 L 345.5 87.75 L 344 89 L 344 79 L 333 79 L 333 113 L 344 113 L 344 109.94336 C 344.0195 105.1517 343.95962 100.56546 343.94922 98.023438 L 346 100 L 347.97266 102.05664 L 349.61133 104 L 351.22266 106 L 352.08203 107 L 353.91797 109 L 354.72266 109.94336 L 355.52734 110.94336 L 357 113 L 370 113 L 369.66797 111.5 L 369.36133 110.94336 L 368.88867 109.94336 L 367.58203 108 C 363.35397 103.02526 359.02177 98.744885 355.91797 94.054688 L 355.52734 93.5 C 354.94051 91.649307 366.61341 82.111286 369.37891 78.962891 z M 295 79 L 295 113 L 306 113 L 306 96 L 307.41797 97.5 L 307.83203 98.054688 L 309.38867 100 L 310.19336 101 L 311.80664 103 L 312.61133 104 L 313.38867 105 L 315 107 L 316.61133 109 L 317.38867 109.97266 L 318.22266 110.88867 L 320.02734 112.27734 L 321 112.66797 L 322 112.88867 L 323 112.97266 L 325 113 L 327 113 L 331 113 L 331 79 L 320 79 L 320 96 L 318.58203 94.5 L 318.16797 93.945312 L 317.33203 92.945312 L 315.86133 91 L 315.13867 90 L 314.36133 89 L 313.61133 88 L 312.80664 87 L 311.19336 85 L 310.38867 84 L 308.88867 82.054688 L 308.22266 81.054688 L 307.75 80.5 L 307 79 L 295 79 z M 272 92 L 271.97266 94.054688 L 271.91797 95.054688 L 271.58203 97 L 271 99 L 270.66797 100 L 270.30664 101 L 269.91797 102 L 268.91797 103.91797 L 267.58203 105.5 L 265.97266 106.5 L 265.02734 106.75 L 263 107 L 263 103.94336 L 263 102 L 263.08203 100 L 263.47266 98 L 264.27734 96.027344 L 265.47266 94.25 L 266.25 93.5 L 268.02734 92.5 L 268.94336 92.25 L 270.5 92.027344 L 272 92 z " />
</svg>
