<?xml version="1.0" encoding="UTF-8"?>
<svg width="264" height="64" version="1.1" viewBox="0 0 69.85 16.933" xmlns="http://www.w3.org/2000/svg" xmlns:cc="http://creativecommons.org/ns#" xmlns:dc="http://purl.org/dc/elements/1.1/" xmlns:rdf="http://www.w3.org/1999/02/22-rdf-syntax-ns#">
<metadata>
<rdf:RDF>
<cc:Work rdf:about="">
<dc:format>image/svg+xml</dc:format>
<dc:type rdf:resource="http://purl.org/dc/dcmitype/StillImage"/>
<dc:title/>
</cc:Work>
</rdf:RDF>
</metadata>
<g stroke-width=".14531">
<path d="m9.4626 9.8642-1.1125 6.3088h-1.2026l0.27333-1.5502c0.16972-0.76608 0.33073-1.5322 0.50045-2.2982l-0.040106-0.018-0.83743 1.6584-0.45395 0.85603h-1.211l-0.152-0.85603-0.2527-1.6584-0.046354 0.018c-0.10913 0.76608-0.20954 1.5322-0.31867 2.2982l-0.27348 1.5502h-1.1939l1.1124-6.3088h1.2373l0.53053 2.3883c0.06539 0.31532 0.17626 0.86518 0.20416 1.0994h0.034584c0.11058-0.23424 0.41515-0.7841 0.59185-1.0994l1.3728-2.3883z" fill="#f00"/>
<path d="m11.358 13.785-0.43753 0.56788-0.32099 1.8206h-1.2113l1.1125-6.3088h1.2112l-0.42591 2.4152 0.4355-0.70301 1.1498-1.7122h1.4015l-2.0262 2.7577 1.1734 3.5511h-1.3842z" fill="#f00"/>
<path d="m18.014 13.911-0.01134-0.72103c0.0016-0.45061 0.03284-1.2167 0.06292-1.7304h-0.03473c-0.15098 0.51367-0.3813 1.2798-0.54724 1.7304l-0.26563 0.72103zm0.02761 1.2168h-1.2805l-0.38333 1.0454h-1.2718l2.5659-6.3088h1.3151l0.34104 6.3088h-1.2716z" fill="#fff"/>
<path d="m20.11 14.145 0.75489-4.2809h1.2803l-0.75474 4.2809c-0.10172 0.57688 0.059 0.89236 0.49159 0.89236 0.43259 0 0.70447-0.31547 0.80618-0.89236l0.75474-4.2809h1.2806l-0.75489 4.2809c-0.23511 1.334-1.0948 2.1361-2.3059 2.1361-1.2113 0-1.788-0.80211-1.5528-2.1361" fill="#fff"/>
<path d="m28.67 11.081h-1.1853l-0.89788 5.0921h-1.263l0.89773-5.0921h-1.1852l0.21448-1.2167h3.6338z" fill="#fff"/>
<path d="m31.247 14.127 0.39089-2.2172c0.10492-0.59476-0.07295-0.91008-0.53155-0.91008-0.4586 0-0.74777 0.31532-0.85268 0.91008l-0.39088 2.2172c-0.10492 0.5949 0.07309 0.91037 0.53155 0.91037 0.4586 0 0.74777-0.31547 0.85268-0.91037m-2.6561 0 0.39103-2.2172c0.23831-1.352 1.1151-2.1539 2.3437-2.1539 1.2286 0 1.8225 0.80197 1.5842 2.1539l-0.39089 2.2172c-0.23846 1.352-1.1153 2.1541-2.3439 2.1541-1.2286 0-1.8225-0.80212-1.5842-2.1541" fill="#fff"/>
<path d="m39.344 9.8642-1.1125 6.3088h-1.2026l0.27333-1.5502c0.16972-0.76608 0.33073-1.5322 0.50045-2.2982l-0.04011-0.018-0.83743 1.6584-0.45395 0.85603h-1.211l-0.152-0.85603-0.2527-1.6584-0.04635 0.018c-0.10928 0.76608-0.20968 1.5322-0.31867 2.2982l-0.27333 1.5502h-1.1942l1.1125-6.3088h1.2373l0.53053 2.3883c0.06539 0.31532 0.17612 0.86518 0.20416 1.0994h0.03444c0.11073-0.23424 0.41515-0.7841 0.59185-1.0994l1.3729-2.3883z" fill="#fff"/>
<path d="m42.113 14.127 0.39089-2.2172c0.10491-0.59476-0.07294-0.91008-0.53155-0.91008-0.4586 0-0.74777 0.31532-0.85269 0.91008l-0.39088 2.2172c-0.10492 0.5949 0.07309 0.91037 0.53155 0.91037 0.4586 0 0.74777-0.31547 0.85269-0.91037m-2.6561 0 0.39089-2.2172c0.23846-1.352 1.1154-2.1539 2.3439-2.1539 1.2285 0 1.8225 0.80197 1.5842 2.1539l-0.39089 2.2172c-0.23845 1.352-1.1154 2.1541-2.3439 2.1541-1.2285 0-1.8226-0.80212-1.5842-2.1541" fill="#fff"/>
<path d="m46.654 14.28c0.08108-0.45962-0.1286-0.69386-0.58705-0.69386h-0.49318l-0.24311 1.3789h0.46717c0.48446 0 0.77668-0.23424 0.85617-0.68499m-0.6369-3.2085-0.23192 1.3159h0.48446c0.34613 0 0.56904-0.23453 0.64707-0.67613 0.07455-0.42358-0.0603-0.6398-0.45817-0.6398zm1.8986 3.2175c-0.19864 1.1265-1.0763 1.8837-2.1146 1.8837h-1.912l1.1124-6.3088h1.8861c0.93449 0 1.4736 0.72103 1.2844 1.7936-0.08428 0.47749-0.36357 0.9823-0.73774 1.2888 0.40237 0.27042 0.58153 0.77509 0.48141 1.3428" fill="#fff"/>
<path d="m50.616 9.8642-1.1124 6.3088h-1.2286l1.1124-6.3088z" fill="#fff"/>
<path d="m53.785 14.956-0.21462 1.2167h-3.028l1.1124-6.3088h1.2285l-0.89787 5.0921z" fill="#fff"/>
<path d="m57.548 14.956-0.21463 1.2167h-3.2098l1.1125-6.3088h3.1233l-0.21462 1.2167h-1.8949l-0.23046 1.3068h1.7219l-0.20663 1.1716h-1.7218l-0.2463 1.397z" fill="#fff"/>
<path d="m57.376 1.2226-17.826 0.47372-4.8184 0.04984c-1.1987-0.25851-2.2286-0.47212-3.0605-0.61946l-1.905-1.0077z" fill="#fff"/>
<path d="m65.977 4.8846-10.685 0.2835-8.2101 0.086022c-0.21622-0.2867-0.58052-0.56279-0.97925-0.80139-0.0044-1.443e-4 -0.01266-0.00449-0.01685-0.00873-0.17684-0.06597-0.37897-0.13674-0.61495-0.21623l-0.01265-0.00857c-0.3749-0.12816-0.74588-0.24354-1.1253-0.35049l5.4201 0.21288z" fill="#fff"/>
<path d="m23.782 6.9658s-0.56381 0.12119-1.0475 0.26112c0.19733-0.23991 0.91241-1.0875 1.1837-1.1581 0.31649-0.08355 2.1404 0.00123 2.1404 0.00123s-1.8752-0.33625-2.2881-0.087476c-0.41268 0.24688-1.2818 1.3114-1.2818 1.3114l0.01759 2.925e-4c-0.03938 0.013222-0.07672 0.024427-0.11218 0.037649 0 0 0.69212-1.1574 1.3217-1.4989 0.63152-0.34351 2.8971 0.084428 3.1678 0.47008 0.26868 0.38769-1.2925 0.96472-3.1017 0.66276" fill="#fff"/>
<path d="m65.276 11.589-5.585 0.06001-0.40629 0.0025c0.04345-0.08399 0.0914-0.18498 0.14385-0.29004l0.40614 0.01425z" fill="#f00"/>
<path d="m60.474 9.0396c0.0353-0.10535 0.01134-0.203-0.05943-0.29295-0.19109-0.25255-0.71755-0.45046-1.1391-0.57078-0.17656-0.087188-0.36183-0.15345-0.5516-0.20692-0.20256-0.05798-0.41355-0.0991-0.62498-0.11901-0.0041-1.442e-4 -0.0041-1.442e-4 -0.0083-1.442e-4 -0.09736-0.00989-0.20314-0.019772-0.30457-0.021214l-0.47415-0.01104-0.06771-8.217e-4 -13.653-0.27972c0.3733-0.049696 0.72147-0.12511 1.0531-0.21361l0.0042 1.442e-4c0.34424-0.092415 0.6632-0.20213 0.94858-0.32506 0.43448-0.18425 0.74922-0.58212 0.84484-1.0464l0.0044-0.00844c0.031913-0.1645-0.45575-0.4044-1.2098-0.67338-1.6469-0.57819-4.5454-1.2841-5.8576-1.5951-0.24891-0.05856-0.43869-0.10361-0.55697-0.13063 0.14356 0.027309 0.39699 0.073236 0.72626 0.13732 0.0044 0 0.0084 1.441e-4 0.0084 1.441e-4 1.5917 0.30632 4.9143 0.95063 5.7912 1.2087 0.44262 0.12918 0.80081 0.24427 1.0657 0.37083 0.45017 0.20547 0.64576 0.44102 0.57281 0.80415 0.22843-0.28466 0.28321-0.55901 0.11698-0.78584-0.0083-0.00857-0.01249-0.017011-0.02063-0.025701-0.21603-0.28655-0.58047-0.56279-0.9792-0.80124-0.0044-1.442e-4 -0.01266-0.00466-0.01685-0.00885-0.17684-0.065975-0.37896-0.1366-0.61495-0.21608l-0.01265-0.00873c-0.37491-0.12817-0.74589-0.24354-1.1253-0.3505-0.70403-0.20896-1.4171-0.38434-2.139-0.53009-2.8324-0.57398-5.3899-1.1481-7.4621-1.5925-1.1985-0.25851-2.2285-0.47212-3.0604-0.61946-0.67148-0.12395-1.208-0.19937-1.5971-0.22611-1.2224-0.076721-3.6357 0.82449-5.4776 2.0344-0.88029 0.57587-3.1156 2.3559-3.3724 2.8434-0.20009 0.37389 0.0013 0.79587 0.1876 1.0991 0.05362 0.089655 0.10753 0.16667 0.1658 0.23947 0.24136 0.00329 0.48258 0.00684 0.72801 0.014541l0.50365 0.00725c0.07193 8.218e-4 0.14807 0.00639 0.22 0.00742 1.0962 0.019772 2.1797 0.043736 3.2208 0.062774 5.667 0.12337 10.225 0.24339 10.225 0.24339l-0.34046 0.4227-23.466-0.063936c-3.8581 0.10143-5.8238 0.21462-6.6132 0.35993-2.7082 0.49914-3.7869 1.631-6.0555 3.3724 0 0 1.6067-4.2993 7.7908-4.5244 2.4736-0.087476 4.7504-0.052312 10.287 0.039379 0.45235-0.55233 0.77276-0.75518 1.4159-1.3217 1.1575-1.0207 6.8752-5.3377 9.9881-5.7165 0.44959-0.053037 1.2151 2.9245e-4 2.2038 0.13717l0.19007 0.028051c1.9604 0.27783 4.7421 0.85515 7.675 1.5109 3.5617 0.79587 7.3546 1.7138 10.203 2.3853 1.9367 0.45526 3.4347 0.79412 4.1276 0.90136 0.4647 0.07004 0.93798 0.13194 1.4114 0.18513 2.5993 0.2912 5.118 0.32288 5.118 0.32288l-1.3623 2.0001s0.0084 0.0042 0.02108 0.00873c0.0085 1.483e-4 0.01685 0.00449 0.02967 0.00885 0.08428 0.026609 0.27798 0.093 0.50525 0.19355 0.14298 0.061324 0.2944 0.13543 0.44552 0.22218 0.35281 0.20402 0.69589 0.47996 0.80952 0.82028 0.01249 0.021214 0.02063 0.042574 0.02457 0.063792 0.01598 0.068005 0.02778 0.13587 0.03094 0.20794-0.1767 0.50539-0.49958 1.195-0.78758 1.7795 0.10535-0.54462 0.19791-1.098 0.24078-1.436l4.11e-4 -0.0465c0.04389-0.10942 0.0834-0.20213 0.10564-0.27376" fill="#fff"/>
<path d="m61.028 8.7427c-0.03488 0.075708-0.0744 0.16406-0.11392 0.27362-0.1767 0.50539-0.49972 1.195-0.78758 1.7795-0.10463 0.21433-0.20475 0.41195-0.29193 0.58008-0.05217 0.10084-0.09998 0.19326-0.14357 0.27318-0.08719 0.17655-0.14807 0.28583-0.14807 0.28583l-0.4198 0.0574s0.06524-0.13034 0.16144-0.34061c0.04359-0.08413 0.09154-0.18498 0.14385-0.29019 0.29237-0.60958 0.72016-1.5179 0.93944-2.0482 0.04389-0.10942 0.08326-0.20213 0.10564-0.27376 0.0044-0.012647 0.0088-0.02529 0.0089-0.037937 0.0012-0.080358-0.0696-0.16187-0.18265-0.2524-0.23863-0.18978-0.6718-0.39481-1.0248-0.5734-0.17656-0.087184-0.36197-0.15345-0.5516-0.20692l0.06466-0.092126 0.25953-0.3858s0.0084 0.0042 0.02108 0.00873c0.0084 1.438e-4 0.01685 0.00449 0.02967 0.00885 0.01266 0.00437 0.02527 0.00885 0.03776 0.013387 0.04214 0.017421 0.09678 0.039379 0.1642 0.061468 0.08414 0.035176 0.18948 0.07469 0.30312 0.11872 0.1642 0.061613 0.34511 0.14458 0.52588 0.22756 0.37011 0.17466 0.72728 0.36604 0.8784 0.45715 0.13834 0.086602 0.09911 0.17917 0.02034 0.35586" fill="#f00"/>
<path d="m69.85 8.4792-8.8221 0.26345-0.7283 0.00655c-0.2386-0.18963-0.67177-0.39466-1.0247-0.5734-0.17655-0.087188-0.36197-0.15345-0.5516-0.20692l0.06466-0.092126 1.3414 0.053041z" fill="#f00"/>
</g>
</svg>
