<?xml version="1.0" encoding="UTF-8" standalone="no"?>
<svg
   xmlns:dc="http://purl.org/dc/elements/1.1/"
   xmlns:cc="http://creativecommons.org/ns#"
   xmlns:rdf="http://www.w3.org/1999/02/22-rdf-syntax-ns#"
   xmlns:svg="http://www.w3.org/2000/svg"
   xmlns="http://www.w3.org/2000/svg"
   xmlns:sodipodi="http://sodipodi.sourceforge.net/DTD/sodipodi-0.dtd"
   xmlns:inkscape="http://www.inkscape.org/namespaces/inkscape"
   width="264"
   height="64"
   viewBox="0 0 69.849998 16.933333"
   version="1.1"
   id="svg8"
   inkscape:version="1.0.2-2 (e86c870879, 2021-01-15)"
   sodipodi:docname="MKAutomobile.svg">
  <defs
     id="defs2">
    <clipPath
       id="cp0">
      <path
         transform="matrix(1,0,0,-1,0,500)"
         d="M 0,500 H 500 V 0 H 0 Z"
         id="path13" />
    </clipPath>
    <clipPath
       id="cp1">
      <path
         transform="matrix(1,0,0,-1,0,500)"
         d="M 0,500 H 500 V 0 H 0 Z"
         id="path60" />
    </clipPath>
  </defs>
  <sodipodi:namedview
     id="base"
     pagecolor="#ffffff"
     bordercolor="#666666"
     borderopacity="1.0"
     inkscape:pageopacity="0.0"
     inkscape:pageshadow="2"
     inkscape:zoom="3.4393939"
     inkscape:cx="132"
     inkscape:cy="32"
     inkscape:document-units="mm"
     inkscape:current-layer="layer1"
     inkscape:document-rotation="0"
     showgrid="false"
     inkscape:window-width="1366"
     inkscape:window-height="705"
     inkscape:window-x="-8"
     inkscape:window-y="-8"
     inkscape:window-maximized="1"
     units="px"
     inkscape:pagecheckerboard="true" />
  <metadata
     id="metadata5">
    <rdf:RDF>
      <cc:Work
         rdf:about="">
        <dc:format>image/svg+xml</dc:format>
        <dc:type
           rdf:resource="http://purl.org/dc/dcmitype/StillImage" />
        <dc:title></dc:title>
      </cc:Work>
    </rdf:RDF>
  </metadata>
  <g
     inkscape:label="Layer 1"
     inkscape:groupmode="layer"
     id="layer1">
    <path
       d="M 9.4626333,9.8642117 8.3501334,16.173026 H 7.1475413 l 0.2733296,-1.550174 c 0.1697232,-0.766081 0.3307276,-1.532158 0.5004504,-2.298239 l -0.040106,-0.018 -0.8374259,1.658431 -0.4539512,0.856029 H 5.3788174 l -0.1519952,-0.856029 -0.2526951,-1.658431 -0.046354,0.018 c -0.1091286,0.766081 -0.2095387,1.532158 -0.3186669,2.298239 l -0.273475,1.550174 H 3.1417566 L 4.2541109,9.8642117 h 1.2373217 l 0.5305296,2.3883303 c 0.06539,0.315321 0.1762621,0.865177 0.2041615,1.099419 h 0.034584 C 6.3712893,13.117719 6.6758613,12.567863 6.8525589,12.252542 L 8.2253104,9.8642117 Z"
       fill="#ff0000"
       id="path63"
       style="display:inline;stroke-width:0.145311" />
    <path
       d="M 11.357777,13.784626 10.920246,14.352502 10.599254,16.1731 H 9.3879433 L 10.500443,9.8642856 h 1.211166 L 11.285703,12.279497 11.7212,11.576483 12.871044,9.8642856 h 1.401523 l -2.026214,2.7577054 1.173385,3.551109 h -1.38423 z"
       fill="#ff0000"
       id="path65"
       style="display:inline;stroke-width:0.145311" />
    <path
       d="m 18.014481,13.910783 -0.01134,-0.72103 c 0.0016,-0.450611 0.03284,-1.216689 0.06292,-1.730362 h -0.03473 c -0.150978,0.513673 -0.381296,1.279751 -0.547241,1.730362 l -0.265628,0.72103 z m 0.02761,1.216833 h -1.280482 l -0.38333,1.045365 h -1.27176 l 2.565899,-6.3088149 h 1.315063 l 0.341045,6.3088149 H 18.05691 Z"
       id="path67"
       style="display:inline;fill:#ffffff;stroke-width:0.145311" />
    <path
       d="m 20.109703,14.145071 0.754889,-4.2808552 h 1.280334 l -0.754744,4.2808552 c -0.101718,0.576885 0.059,0.892355 0.491586,0.892355 0.432591,0 0.704467,-0.31547 0.806185,-0.892355 l 0.754744,-4.2808552 h 1.280624 l -0.754889,4.2808552 c -0.235113,1.333953 -1.094773,2.136067 -2.305938,2.136067 -1.211311,0 -1.78805,-0.802114 -1.552791,-2.136067"
       id="path69"
       style="display:inline;fill:#ffffff;stroke-width:0.145311" />
    <path
       d="m 28.66992,11.080912 h -1.185301 l -0.897875,5.092126 h -1.263042 l 0.897731,-5.092126 h -1.185155 l 0.214479,-1.216688 h 3.633787 z"
       id="path71"
       style="display:inline;fill:#ffffff;stroke-width:0.145311" />
    <path
       d="m 31.247196,14.12705 0.390886,-2.217151 c 0.104915,-0.594758 -0.07295,-0.910083 -0.531547,-0.910083 -0.458601,0 -0.747769,0.315325 -0.852684,0.910083 l -0.390885,2.217151 c -0.104916,0.594902 0.07309,0.910372 0.531546,0.910372 0.458602,0 0.74777,-0.31547 0.852684,-0.910372 m -2.656136,0 0.391031,-2.217151 c 0.23831,-1.351974 1.115115,-2.153944 2.343719,-2.153944 1.228603,0 1.822488,0.80197 1.584178,2.153944 l -0.390886,2.217151 c -0.238455,1.35197 -1.115261,2.154088 -2.343863,2.154088 -1.228603,0 -1.822489,-0.802118 -1.584179,-2.154088"
       id="path73"
       style="display:inline;fill:#ffffff;stroke-width:0.145311" />
    <path
       d="m 39.344017,9.8642117 -1.1125,6.3088143 h -1.202592 l 0.273329,-1.550174 c 0.169724,-0.766081 0.330728,-1.532158 0.500451,-2.298239 l -0.04011,-0.018 -0.837426,1.658431 -0.453951,0.856029 h -1.211021 l -0.151995,-0.856029 -0.252695,-1.658431 -0.04635,0.018 c -0.109275,0.766081 -0.209684,1.532158 -0.318667,2.298239 l -0.27333,1.550174 h -1.194165 l 1.1125,-6.3088143 h 1.237321 l 0.53053,2.3883303 c 0.06539,0.315321 0.176117,0.865177 0.204162,1.099419 h 0.03444 c 0.110727,-0.234242 0.415153,-0.784098 0.591852,-1.099419 l 1.372896,-2.3883303 z"
       id="path75"
       style="display:inline;fill:#ffffff;stroke-width:0.145311" />
    <path
       d="m 42.113297,14.12705 0.390886,-2.217151 c 0.104914,-0.594758 -0.07294,-0.910083 -0.531548,-0.910083 -0.458604,0 -0.747767,0.315325 -0.852686,0.910083 l -0.390885,2.217151 c -0.104917,0.594902 0.07309,0.910372 0.531546,0.910372 0.458605,0 0.747768,-0.31547 0.852687,-0.910372 m -2.656142,0 0.390889,-2.217151 c 0.238456,-1.351974 1.115405,-2.153944 2.343863,-2.153944 1.22846,0 1.822491,0.80197 1.584182,2.153944 L 43.3852,14.12705 c -0.238453,1.35197 -1.115406,2.154088 -2.343863,2.154088 -1.228461,0 -1.822634,-0.802118 -1.584182,-2.154088"
       id="path77"
       style="display:inline;fill:#ffffff;stroke-width:0.145311" />
    <path
       d="m 46.65398,14.280311 c 0.08108,-0.459619 -0.128599,-0.693857 -0.587054,-0.693857 h -0.493184 l -0.243107,1.378851 h 0.467174 c 0.484464,0 0.776685,-0.234238 0.856171,-0.684994 m -0.636898,-3.20846 -0.231916,1.315932 h 0.484465 c 0.346132,0 0.569041,-0.23453 0.647071,-0.676129 0.07455,-0.423583 -0.0603,-0.639803 -0.458167,-0.639803 z m 1.89863,3.217469 c -0.198637,1.126452 -1.076317,1.883665 -2.114558,1.883665 h -1.912002 l 1.112353,-6.3088148 h 1.886136 c 0.934493,0 1.473597,0.7210308 1.284401,1.7935728 -0.08428,0.477489 -0.363566,0.982298 -0.737741,1.288759 0.402366,0.270424 0.581532,0.77509 0.481411,1.342818"
       id="path79"
       style="display:inline;fill:#ffffff;stroke-width:0.145311" />
    <path
       d="M 50.616389,9.8642117 49.504037,16.173026 H 48.275434 L 49.387786,9.8642117 Z"
       id="path81"
       style="display:inline;fill:#ffffff;stroke-width:0.145311" />
    <path
       d="m 53.784716,14.956338 -0.21462,1.216688 h -3.027991 l 1.112357,-6.3088143 h 1.228456 l -0.897871,5.0921263 z"
       id="path83"
       style="display:inline;fill:#ffffff;stroke-width:0.145311" />
    <path
       d="m 57.548037,14.956338 -0.214626,1.216688 h -3.209769 l 1.112501,-6.3088143 h 3.123306 L 58.144828,11.0809 h -1.894851 l -0.230464,1.30678 h 1.721934 l -0.206632,1.171638 h -1.721792 l -0.246304,1.39702 z"
       id="path85"
       style="display:inline;fill:#ffffff;stroke-width:0.145311" />
    <path
       d="m 57.376193,1.2226201 -17.826009,0.4737151 -4.818361,0.04984 C 33.533155,1.4876684 32.503192,1.2740588 31.671287,1.1267164 L 29.766262,0.11898331 Z"
       id="path87"
       style="display:inline;fill:#ffffff;stroke-width:0.145311" />
    <path
       d="M 65.97705,4.8846258 55.291912,5.1681273 47.081849,5.2541495 C 46.865626,4.9674518 46.501332,4.6913643 46.102603,4.4527601 c -0.0044,-1.443e-4 -0.01266,-0.00449 -0.01685,-0.00873 -0.176841,-0.06597 -0.378966,-0.13674 -0.614954,-0.2162255 l -0.01265,-0.00857 C 45.083246,4.0910725 44.712267,3.9756939 44.332862,3.8687469 l 5.420092,0.2128806 z"
       id="path91"
       style="display:inline;fill:#ffffff;stroke-width:0.145311" />
    <path
       d="m 23.781925,6.9657989 c 0,0 -0.563807,0.1211906 -1.047546,0.2611227 0.197333,-0.2399054 0.912408,-1.0875066 1.183703,-1.1581276 0.316487,-0.08355 2.140428,0.00123 2.140428,0.00123 0,0 -1.875237,-0.3362462 -2.288064,-0.087476 -0.412683,0.2468831 -1.281788,1.3114303 -1.281788,1.3114303 l 0.01759,2.925e-4 c -0.03938,0.013222 -0.07672,0.024427 -0.11218,0.037649 0,0 0.692116,-1.1574029 1.321747,-1.4988841 0.631521,-0.3435122 2.897063,0.084428 3.167777,0.470082 0.268679,0.3876888 -1.29254,0.9647178 -3.10166,0.6627631"
       id="path97"
       style="display:inline;fill:#ffffff;stroke-width:0.145311" />
    <path
       d="m 65.276042,11.589087 -5.585018,0.06001 -0.406289,0.0025 c 0.04345,-0.08399 0.0914,-0.184982 0.143854,-0.290043 l 0.406143,0.01425 z"
       fill="#ff0000"
       id="path95"
       style="display:inline;stroke-width:0.145311" />
    <path
       style="display:inline;fill:#ffffff;stroke-width:0.145311"
       d="m 60.473553,9.0396032 c 0.0353,-0.1053489 0.01134,-0.202999 -0.05943,-0.2929468 C 60.223037,8.4941056 59.696575,8.2961936 59.27503,8.1758762 59.098473,8.0886884 58.913202,8.0224293 58.723426,7.9689516 c -0.202561,-0.05798 -0.413554,-0.0991 -0.624978,-0.1190076 -0.0041,-1.442e-4 -0.0041,-1.442e-4 -0.0083,-1.442e-4 -0.09736,-0.00989 -0.203145,-0.019772 -0.304572,-0.021214 l -0.474151,-0.01104 -0.06771,-8.217e-4 -13.653404,-0.2797246 c 0.3733,-0.049696 0.721467,-0.125112 1.053067,-0.2136057 l 0.0042,1.442e-4 C 44.991813,7.231123 45.310774,7.1214121 45.59616,6.998479 46.030642,6.8142261 46.345383,6.416363 46.440999,5.952097 l 0.0044,-0.00844 C 46.477312,5.7791593 45.989651,5.5392534 45.235638,5.27028 43.588726,4.6920891 40.690209,3.9861711 39.378049,3.6752037 39.129135,3.6166432 38.939358,3.5715972 38.821075,3.5445722 c 0.143565,0.027309 0.39699,0.073236 0.726262,0.1373167 0.0044,0 0.0084,1.441e-4 0.0084,1.441e-4 1.591738,0.3063171 4.91427,0.9506268 5.791224,1.2086973 0.442615,0.1291814 0.800807,0.2442675 1.065708,0.3708336 0.450172,0.2054706 0.645757,0.4410182 0.572813,0.8041493 0.22843,-0.2846635 0.283209,-0.5590125 0.116978,-0.7858404 -0.0083,-0.00857 -0.01249,-0.017011 -0.02063,-0.025701 -0.216028,-0.2865531 -0.580469,-0.562789 -0.979198,-0.8012448 -0.0044,-1.442e-4 -0.01266,-0.00466 -0.01685,-0.00885 C 45.908945,4.378102 45.706819,4.3074808 45.470828,4.2279953 l -0.01265,-0.00873 C 45.08327,4.0910956 44.712288,3.9757211 44.332882,3.8687699 43.628849,3.6598149 42.91581,3.4844259 42.193904,3.3386775 39.361506,2.7647007 36.804036,2.1905755 34.731757,1.7462169 33.533234,1.4877096 32.503271,1.2741 31.671366,1.1267575 30.999884,1.0028072 30.463397,0.92738746 30.074255,0.90065073 28.8519,0.8239293 26.438577,1.7251438 24.596618,2.9350026 c -0.880293,0.5758676 -3.11561,2.355926 -3.372374,2.8434438 -0.200093,0.3738861 0.0013,0.795866 0.187596,1.0991309 0.05362,0.089655 0.10753,0.1666729 0.1658,0.2394733 0.241361,0.00329 0.482578,0.00684 0.728008,0.014541 l 0.503646,0.00725 c 0.07193,8.218e-4 0.148073,0.00639 0.220001,0.00742 1.096225,0.019772 2.179663,0.043736 3.220815,0.062774 5.666977,0.1233657 10.224942,0.2433946 10.224942,0.2433946 L 36.134588,7.8751337 12.668778,7.8111977 C 8.8106308,7.9126235 6.8450114,8.0258191 6.0555376,8.1711309 3.3473803,8.6702727 2.2685925,9.8021006 0,11.543502 c 0,0 1.6067016,-4.2993088 7.7908399,-4.5243983 2.4736261,-0.087476 4.7503551,-0.052312 10.2865531,0.039379 0.452353,-0.552327 0.772763,-0.7551819 1.415908,-1.3217485 1.157547,-1.0206628 6.875237,-5.337704 9.988085,-5.71652862 0.449592,-0.05303684 1.215089,2.9245e-4 2.203784,0.13717251 l 0.190068,0.0280507 c 1.960388,0.27783262 4.742072,0.85515411 7.675028,1.51093921 3.561712,0.79587 7.354619,1.7137996 10.202709,2.3852784 1.936704,0.4552576 3.434711,0.7941232 4.127556,0.9013625 0.464705,0.07004 0.937981,0.1319413 1.411405,0.1851266 2.59932,0.2912043 5.117987,0.3228797 5.117987,0.3228797 l -1.362285,2.0000609 c 0,0 0.0084,0.0042 0.02108,0.00873 0.0085,1.483e-4 0.01685,0.00449 0.02967,0.00885 0.08428,0.026609 0.27798,0.093 0.505248,0.1935541 0.142983,0.061324 0.294402,0.1354301 0.445525,0.2221812 0.352813,0.2040165 0.695892,0.4799638 0.809523,0.8202793 0.01249,0.021214 0.02063,0.042574 0.02457,0.063792 0.01598,0.068005 0.02778,0.1358668 0.03094,0.2079421 -0.176701,0.5053905 -0.499581,1.1950352 -0.787581,1.7794742 0.105346,-0.544625 0.19791,-1.09797 0.240777,-1.4359624 l 4.11e-4,-0.0465 c 0.04389,-0.1094184 0.0834,-0.202126 0.105643,-0.2737644"
       id="path99" />
    <path
       d="m 61.028114,8.7427476 c -0.03488,0.075708 -0.0744,0.1640572 -0.113922,0.2736198 -0.176701,0.5053909 -0.499725,1.1950386 -0.787581,1.7794776 -0.104628,0.214331 -0.204748,0.411954 -0.291933,0.580082 -0.05217,0.100842 -0.09998,0.193261 -0.143567,0.273182 -0.08719,0.176552 -0.148074,0.285826 -0.148074,0.285826 l -0.419801,0.0574 c 0,0 0.06524,-0.130342 0.161441,-0.340608 0.04359,-0.08413 0.09154,-0.184982 0.143854,-0.290187 0.292369,-0.609577 0.720165,-1.5179177 0.939436,-2.0481543 0.04389,-0.1094184 0.08326,-0.2021297 0.105643,-0.273764 0.0044,-0.012647 0.0088,-0.02529 0.0089,-0.037937 C 60.48371,8.9213267 60.41291,8.83981 60.299856,8.7492817 60.06123,8.5595031 59.628061,8.3544693 59.2751,8.1758799 59.098542,8.0886962 58.913128,8.022433 58.723496,7.9689594 l 0.06466,-0.092126 0.259526,-0.3858021 c 0,0 0.0084,0.0042 0.02108,0.00873 0.0084,1.438e-4 0.01685,0.00449 0.02967,0.00885 0.01266,0.00437 0.02527,0.00885 0.03776,0.013387 0.04214,0.017421 0.09678,0.039379 0.164201,0.061468 0.08414,0.035176 0.189484,0.07469 0.303122,0.1187191 0.164201,0.061613 0.345109,0.1445825 0.525878,0.2275568 0.370107,0.1746642 0.72728,0.366039 0.878402,0.4571483 0.138341,0.086602 0.09911,0.1791662 0.02034,0.355865"
       fill="#ff0000"
       id="path101"
       style="display:inline;stroke-width:0.145311" />
    <path
       d="m 69.850212,8.4792274 -8.822115,0.26345 -0.728295,0.00655 C 60.061202,8.5595984 59.628032,8.3545646 59.275071,8.1758306 59.098518,8.0886428 58.913099,8.0223841 58.723472,7.9689064 l 0.06466,-0.092126 1.341364,0.053041 z"
       fill="#ff0000"
       id="path93"
       style="display:inline;stroke-width:0.145311" />
  </g>
</svg>
