<svg xmlns="http://www.w3.org/2000/svg" width="370" height="200" viewBox="0 0 97.89583 52.91667"><path d="M9.09683 10.58333l-.00012.00012-.02877.08638-.0192.03208-.02395.05761-.03035.05431-.02561.05761-.05761.11517-.03194.05761-.02568.05761-.03035.05761-.04963.11517-.02079.05761-.02079.05761-.03834.11517-.03848.11517-.01913.05761-.03366.11518-.0128.0576-.0223.11518-.01122.05761-.0128.05762-.01762.11517-.0029.05761-.0014.11518-.0014.0576-.0029.05762-.0177.11517-.0128.0576-.01273.11518.01273.11517.0128.0576.0177.11518.0029.0576.0014.05762.0014.11517.0029.0576.01762.11519.0128.0576.01122.05762.0223.11517.01122.0576.02719.11518.01597.05761.03194.11518.04006.11517.0241.05762.04632.11517.04474.11517.04963.11518.03035.0576.02719.05762.03352.0576.03208.05762.07042.11517.03352.05762.06883.11518.07042.11517.0656.11517.02877.0576.0656.11518.07042.11518.0656.11517.02877.0576.0656.11518.07042.11517.0656.11518.02877.0576.0656.11518.07042.11517.03352.05762.06883.11517.07042.11518.0656.11517.02877.05761.0656.11517.07042.11517.0656.11518.02877.05762.0656.11517.07042.11517.0656.11517.02877.05762.0656.11517.07042.11517.03352.05761.06883.11517.07042.11518.0656.11517.02877.05762.0656.11517.07042.11517.03194.05762.03366.05761.05912.11517.02568.05761.03194.05762.05603.11517.02395.05761.02568.05762.04474.11518.04474.11517.02251.05761.0159.05762.01762.05761.0128.05761.02877.11518.02877.11517.01439.05762.01755.11517.0096.11517.0081.05762.02237.11518.01755.11517.005.11517v.0576l-.0014.11518-.0036.05761-.01755.11517-.02237.11517-.0081.05761-.0096.11517-.008.05762-.0096.05761-.02719.11518-.01597.0576-.02877.11518-.0128.05762-.01755.0576-.01597.05762-.02237.0576-.04488.11518-.04474.11517-.02553.05761-.0241.05762-.03035.05761-.02568.05761-.03194.05761-.02568.05762-.03035.05761-.02237.05445-.03366.08953-.01597.08638-.04323-.08638-.005-.03193-.03208-.11202-.03517-.11517-.01913-.05761-.03848-.11518-.03834-.11517-.02079-.0576-.02079-.05763-.02554-.0576-.0241-.05763-.03036-.0576-.02719-.05762-.0656-.11517-.07042-.11517-.0656-.11517-.02877-.05762-.0656-.11517-.07042-.11517-.03352-.05762-.06883-.11517-.07042-.11517-.0656-.11518-.02877-.05761-.0656-.11517-.07042-.11517-.0656-.11517-.02877-.05762-.0656-.11517-.07042-.11518-.0656-.11517-.02877-.0576-.0656-.11519-.07042-.11517-.03352-.05762-.06884-.11517-.07042-.11517-.0656-.11518-.02877-.0576-.0656-.11518-.07042-.11517-.0656-.11517-.02877-.05762-.0656-.11517-.07042-.11518-.03352-.0576-.06883-.11518-.07042-.11517-.0656-.11518-.02877-.0576-.0656-.11518-.07042-.11517-.0656-.11517-.02877-.05762-.0656-.11517-.07042-.11517-.0656-.11517-.02877-.05762-.0656-.11518-.07042-.11517-.03352-.05762-.06884-.11517-.07042-.11517-.0656-.11518-.02877-.0576-.0656-.11518-.07042-.11517-.0656-.11517-.02877-.0576-.0656-.11518-.07042-.11518-.0656-.11517-.02877-.0576-.0656-.11518-.03517-.0576-.06402-.11518-.05121-.11517-.02237-.05761-.04632-.11517-.0241-.05761-.0415-.11518-.0385-.11517-.0335-.11517-.0112-.0543-.0112-.08964-.001-.0864-.072.0208-.064.05603-.072.09763-.0319.05589-.0608.11517-.0304.0576-.0239.05762-.0257.0576-.0447.11519-.0463.11517-.0241.0576-.0415.11518-.0192.0576-.0192.05762-.0335.11518-.013.0576-.0223.11518-.0241.11517-.0175.11517-.01.11518-.0176.11517-.0128.0576-.0176.11518-.004.05761-.001.05761v.23035l.005.11517.008.05761.01.05761.0224.11518.008.05761.01.11517.008.05761.01.05761.0241.11517.0223.11518.013.05761.0158.05761.0177.05761.0385.11517.0383.11518.0192.0576.0415.11518.0257.05762.0239.05761.0304.05762.0257.05761.0592.11517.0656.11518.0704.11518.0656.11517.0288.0576.0656.11518.0704.11517.0656.11518.02877.0576.0656.11518.07042.11517.0656.11518.02877.0576.0656.11518.07042.11517.03352.05761.06884.11517.07042.11518.0656.11517.02877.05761.0656.11517.07042.11517.0656.11518.02877.05762.0656.11517.07042.11517.0656.11517.02877.05761.0656.11517.07042.11518.06883.11517.03352.0576.07042.11518.0656.11518.02877.0576.0656.11518.07042.11517.0656.11518.02877.05762.0656.11517.07042.11517.0656.11517.0592.11518.02568.0576.03035.05762.0241.0576.02553.05763.02079.0576.02079.05763.03834.11517.03848.11518.01913.0576.03366.11518.0128.0576.0223.11518.0241.11518.0096.05762.0081.0576.0065.11518.0036.0576.01755.11518.0128.0576.01762.11519v.11517l-.01762.11517-.0128.05762-.01755.11517-.0036.0576-.0065.11518-.01762.11517-.01438.05761-.02877.11517-.0128.05761-.01597.05761-.02877.11517-.03194.11518-.04006.11517-.0241.05761-.04632.11518-.04474.11517-.05121.11517-.06243.11517-.03194.05445-.02568.05761-.01755.03194-.0192.08638-.05603-.08638-.0096-.03194-.02554-.0576-.01439-.05446-.01762-.0576-.01439-.05763-.03675-.11517-.02079-.0576-.04963-.11518-.03035-.05762-.02568-.05761-.03194-.05762-.02561-.05761-.03194-.05761-.02568-.05761-.03194-.05762-.05761-.11518-.02719-.05762-.0656-.11517-.07042-.11517-.0656-.11517-.02877-.05762-.0656-.11518-.07042-.11517-.03352-.05761-.06883-.11517-.07042-.11517-.0656-.11518-.02877-.05761-.0656-.11517-.07042-.11517-.0656-.11517-.02877-.05762-.0656-.11517-.07042-.11517-.0656-.11517-.02877-.05762-.0656-.11518-.07042-.11517-.03352-.05761-.06884-.11517-.0704-.11517-.0656-.11518-.0288-.05761-.0656-.11518-.0704-.11517-.0656-.11517-.0288-.05762-.0656-.11517-.0704-.11517-.0335-.05761-.0688-.11518-.0704-.11517-.0656-.11518-.0288-.0576-.0656-.11518-.0704-.11517-.0656-.11517-.0288-.0576-.0656-.11518-.0704-.11517-.0656-.11517-.0288-.05762-.0656-.11518-.0704-.11517-.0319-.05761-.0337-.05761-.0592-.11517-.0256-.05762-.0576-.11518-.0303-.0576-.0496-.11518-.0208-.05762-.0208-.0576-.0383-.11518-.0352-.11518-.0144-.05761-.016-.05762-.0128-.05761-.0144-.05761-.0112-.05761-.0224-.11517-.0112-.05762-.0128-.05761-.0176-.11517-.003-.05762-.001-.05761v-.46069l-.0864.0013-.0895.01114-.0545.0096-.11517.02719-.0576.01595-.0576.01439-.0576.0177-.0576.01754-.0576.0192-.17276.05763-.28793.09594-.11518.03848-.0576.0208-.0576.02072-.0576.0241-.11517.04632-.11518.04474-.0576.0241-.11518.04632-.11517.04474-.0576.02566-.0576.02394-.11517.05603-.0576.03208-.11518.0576-.0576.02554-.0576.03208-.0576.02553-.0576.03208-.0576.02712-.0576.03366-.0576.03193-.11518.07042-.11517.06884-.0576.03352-.0576.0369-.0576.03675-.11517.0767-.0576.04008-.0576.03992-.0576.04316-.0576.04164-.11517.08795-.11517.09279-.11518.09279-.0576.04474-.11517.09762-.11517.11034-.11034.11517-.0975.11518-.0912.11517-.0928.11517-.0447.05762-.0817.11517-.0767.11518-.0368.05762-.0688.11517-.0336.0576-.0271.05762-.0305.0576-.0239.05763-.0255.0576-.0449.11518-.0447.11517-.0224.05762-.0336.11517-.0127.05762-.0144.05761-.0112.05761-.0224.11517-.0239.11516-.0177.11518-.003.0576-.002.05763v.28795l.005.11518.008.05762.01.0576.0239.11519.0225.11517.0111.05762.0272.11517.016.05762.0144.0576.0175.05763.0401.11517.0256.0576.0239.05762.056.11517.0319.05762.0257.0576.0319.05763.0272.0576.0656.11518.0368.05762.08.11517.0448.0576.0928.11519.0465.0576.0447.05763.0976.11517.0543.0576.11359.11518.0576.05761.11517.11045.0576.04963.0576.0479.11517.09122.11517.0928.0576.04473.11517.08154.0576.03848.0576.03834.11518.07682.17275.11518.0576.03833.11517.07355.0576.03208.0576.03352.11517.05927.0576.02553.0576.03208.0576.02553.0576.03208.11517.05761.0576.02553.0576.03208.0576.02553.11517.05761.0576.03036.0576.0241.0576.02553.11518.04474.11517.04647.0576.02395.11517.04474.11517.04647.0576.02394.0576.0208.0576.0208.0576.01921.17275.05761.17276.05762.0576.01913.11518.03517.0576.0144.11517.03034.0576.01754.11517.03532.0576.01754.11518.03035.11517.0272.0576.01121.11517.0223.0576.01122.11518.0272.0576.01595.0576.01281.0576.0144.0576.01121.11517.0223.11517.0241.11518.01913.11517.01611.11518.02238.11517.01762.11517.0096.0576.008.11517.02236.11517.0177.0576.0029.11517.0036.0576.0029.11518.01754.0576.01281.11518.0177.0576.0029.11518.0013h.11518l.0576.0013.05762.0029.11517.0177.0576.01273.11518.01762.05761.0029.05761.0013H9.79078l.11517-.005.0576-.008.11518-.02238.11517-.0177.05762-.0029.11518-.0013h.11517l.0576-.0013.05762-.0029.11517-.0177.0576-.0128.11519-.01755.0576-.0029.11518-.0036.0576-.0029.11518-.0177.11518-.02238.0576-.008.11518-.0096.11517-.0177.11517-.02238.11518-.0161.11517-.01914.11517-.0241.11517-.0223.05761-.01123.05761-.01439.05761-.0128.05761-.01596.11517-.02719.05761-.01122.11518-.0223.0576-.01123.11518-.02719.11517-.03035.05761-.01754.11518-.03532.0576-.01754.11518-.03035.0576-.01439.11518-.03517.11517-.03834.23034-.07682.17277-.0576.11517-.03835.11517-.04164.0576-.02395.11519-.04647.11517-.04474.11517-.04963.0576-.03035.05762-.02553.0576-.0305.05762-.02394.0576-.02567.11518-.04474.0576-.02553.05762-.02569.0576-.03194.05762-.03208.11517-.07042.11518-.0656.0576-.02877.11518-.0656.11517-.07042.11517-.06869.11518-.07042.11517-.07839.0576-.04323.05762-.04165.0576-.04474.05762-.04165.0576-.04474.11519-.08638.11517-.0911.0576-.04963.11518-.11045.11517-.11517.11518-.11517.05603-.05761.0543-.05762.09763-.11518.04323-.05761.04474-.05762.04162-.05761.08323-.11517.07513-.11517.03352-.05761.06726-.11517.03352-.05762.05759-.11517.02407-.05762.02564-.05761.02227-.05761.02407-.05761.0415-.11517.01923-.05762.01923-.05761.03352-.11518.01293-.0576.02227-.11519.02407-.11517.01754-.11517.0032-.05761.0016-.05762v-.34552l-.0016-.11517-.0032-.05761-.01754-.11517-.01282-.05762-.02238-.11517-.02407-.11517-.01586-.05761-.0369-.11517-.03992-.11518-.02081-.05761-.0496-.11504-.03037-.05762-.0576-.11517-.02563-.05762-.03194-.0576-.02722-.05762-.06557-.11517-.03678-.0576-.08008-.11518-.09111-.11517-.0928-.11518-.04473-.0576-.09763-.11518-.11033-.11517-.05761-.05761-.11517-.11349-.05761-.05445-.11517-.09763-.05761-.04474-.11518-.09279-.11517-.0911-.11517-.08165-.05761-.03834-.11518-.07683-.11517-.0767-.0576-.03675-.05762-.0369-.0576-.03352-.11518-.06883-.11517-.07042-.0576-.03194-.05762-.03366-.11518-.05919-.0576-.02553-.05762-.03208-.0576-.02553-.05762-.03208-.11517-.05761-.0576-.02553-.11519-.05762-.0576-.0305-.11518-.04963-.11517-.04474-.11517-.04632-.0576-.0241-.05762-.02072-.0576-.0208-.11518-.04006-.05761-.0208-.05761-.02394-.05761-.02238-.11518-.04474-.11517-.0369-.11517-.03035-.05761-.01439-.05762-.01754-.05761-.0177-.11518-.03834-.05762-.01921-.11517-.03352-.0543-.01122-.08965-.01114-.08638-.0013v-.28797l-.005-.11518-.008-.05761-.02237-.11517-.02237-.11517-.0241-.11518-.03352-.11517-.0192-.05761-.03834-.11517-.03848-.11517-.02072-.05761-.02079-.05761-.02568-.05761-.02395-.05762-.05603-.11517-.03194-.05761-.02568-.05761-.03194-.05761-.0576-.11518-.0272-.05761-.0656-.11517-.07042-.11517-.0656-.11518-.02877-.0576-.0656-.11518-.07042-.11517-.03352-.0576-.06883-.11518-.07042-.11518-.0656-.11517-.02877-.05762-.0656-.11517-.07042-.11517-.0656-.11517-.02877-.05761-.0656-.11517-.07042-.11517-.0656-.11517-.02877-.05761-.0656-.11518-.07042-.11517-.03352-.05761-.06883-.11517-.07042-.11517-.0656-.11518-.02877-.05761-.0656-.11517-.07042-.11517-.0656-.11517-.02878-.05761-.0656-.11518-.07042-.11517-.03352-.05761-.06883-.11517-.07042-.11518-.0656-.11517-.02877-.05761-.0656-.11517-.07042-.11518-.0656-.11517-.02877-.0576-.0656-.11518-.07042-.11517-.0656-.11517-.02877-.0576-.0656-.11519-.07042-.11517-.0656-.11517-.02719-.0576-.0576-.11518-.03195-.05761-.05603-.11518-.0241-.0576-.02554-.05762-.02079-.0576-.02079-.05762-.03834-.11517-.03848-.11518-.01913-.05762-.03366-.1119-.01115-.05761-.0081-.03208-.005-.08638zm16.00888 4.60702l-.11517.0014-.05759.0036-.11517.01755-.0576.0128-.11516.0177-.0576.005-.11517.0128-.05759.0096-.11517.0241-.11517.02237-.0576.01115-.11516.02719-.0576.01597-.05758.0128-.0576.01597-.05758.0128-.05758.01597-.11518.03208-.11517.03992-.05759.0241-.11517.04632-.11517.04474-.0576.02568-.05758.02554-.0576.03208-.11517.06718-.11517.06883-.05759.03676-.05759.03675-.05759.04316-.11517.09121-.0576.04632-.11044.09279-.09751.10404-.0911.11349-.09122.11517-.04319.0576-.03689.05762-.0703.11517-.06883.11517-.05759.11518-.02238.0576-.04004.11518-.01912.0576-.03847.11518-.01912.05762-.03363.11517-.01282.05761-.01114.05761-.02238.11518-.01282.0576-.01766.11518-.0032.05762-.0016.0576v.63347l.0016.11518.0032.05761.01766.11517.01282.05761.01912.11517.0065.05761.0207.11517.01597.05761.03678.11518.03847.11517.03835.11517.02081.0576.02081.05762.05118.11518.064.11517.03678.05762.07513.11517.03847.0576.08154.11519.04645.05762.10392.11517.05601.0576.11518.11518.05758.0576.11517.11046.11517.09594.05758.04165.0576.03992.11517.07682.11517.07682.05759.03834.05759.03676.05759.03675.11517.0656.0576.02877.11516.0656.0576.03517.11517.06402.11517.0512.05759.02237.05759.02567.05759.02394.11517.05603.0576.03035.11517.04963.11517.04474.11517.04963.05758.02877.11517.04963.11518.04474.11517.04963.05759.0305.11517.05589.05758.0241.0576.02553.11516.04474.0576.02567.05757.02394.0576.0305.11517.05762.05759.02553.05759.03208.05758.02553.05759.03208.05759.02553.11517.05912.05759.03366.05758.03194.11517.07042.11517.07042.0576.03517.05758.04165.11518.0847.05759.04316.11517.09763.11034.11033.0496.05762.04633.05761.08008.11518.06872.11517.03205.05761.02397.05762.02408.05761.03352.11518.0128.0576.01443.05762.01754.11518.0032.0576.0016.11518-.0048.11517-.01923.11517-.0351.11517-.02081.05762-.05118.11517-.06883.11517-.04477.05762-.04802.05761-.11034.11362-.05759.05445-.11517.09594-.11517.07997-.0576.03524-.05758.03035-.0576.02726-.11517.04316-.05758.0192-.05759.01914-.11517.03517-.05759.01439-.05759.01595-.05759.0128-.05758.0144-.11517.01913-.0576.0065-.05758.0096-.0576.0096-.05758.0128-.11517.01763-.0576.0029-.05758.0013h-.86378l-.0576-.0013-.05758-.0029-.11517-.01762-.11518-.02236-.05759-.0081-.11517-.0096-.05759-.008-.11517-.02236-.11518-.01913-.05758-.0065-.11518-.01913-.05759-.0144-.11517-.02876-.05758-.01281-.05759-.01595-.05759-.01281-.05759-.01595-.11517-.02877-.0576-.01281-.11517-.03035-.11517-.03517-.05759-.01913-.11517-.03848-.11517-.03834-.0576-.0208-.05758-.0208-.11518-.04632-.05759-.02394-.11517-.04006-.05433-.01596-.08964-.01921-.08627-.005-.0144.08627-.02238.08964-.01283.0543-.01597.05762-.01282.0576-.02879.11518-.01597.05762-.02722.11517-.01125.05762-.02227.11517-.02407.11517-.01766.11518-.0032.05761-.0064.11518-.01754.11517-.01282.0576-.01766.11518-.0032.05761-.0016.11203v.11832l.08638.02569.03206.0128.11191.0415.11517.04647.05758.02394.11518.04158.11517.03833.05758.0177.0576.01754.11516.0305.0576.01273.05758.0161.0576.01274.05758.01595.11518.02877.05759.0128.11517.02878.05759.01439.11517.01913.0576.0065.11516.01913.11518.02238.05759.008.11517.0096.11517.0177.0576.0128.11516.01763.0576.0029.11517.0013h.17276l.11517.0013.05758.0029.11517.01754.0576.0128.11517.0177.11517.005h.4031l.11518-.0013.05758-.0029.11517-.0177.05759-.0128.11517-.01754.0576-.0036.11517-.0013h.11517l.05759-.0013.05759-.0029.11517-.01754.05759-.01281.05759-.0097.05759-.0096.05759-.0065.11517-.01913.11517-.0272.0576-.01594.05758-.01281.0576-.01596.05757-.01281.11518-.03035.11517-.03517.05759-.01921.11517-.03833.11517-.03848.0576-.02072.05758-.0208.11518-.04963.05758-.03035.05759-.02567.05759-.03193.05759-.02567.05758-.03194.05759-.0272.11517-.0656.05759-.03674.11517-.08008.05759-.04467.11517-.0929.05759-.04632.11034-.0928.09763-.10392.0911-.11359.0929-.11518.04465-.0576.08008-.11518.03678-.0576.03194-.05762.06085-.11517.03037-.05762.0496-.11517.02082-.05762.03993-.11517.03689-.11517.01754-.05762.03037-.11518.0128-.0576.01443-.05763.01913-.11517.0065-.0576.01913-.11518.0128-.05761.01768-.11517.0032-.05762.0016-.05761v-.28795l-.0016-.11517-.0032-.05762-.01767-.11517-.01281-.05761-.01754-.11517-.0095-.11518-.01765-.11517-.01442-.05762-.0288-.11517-.01438-.05761-.01754-.05761-.04005-.11518-.02553-.05761-.02408-.05761-.03037-.05761-.02577-.05762-.03194-.05761-.02722-.05761-.06557-.11518-.03678-.05761-.0784-.11517-.04318-.05761-.08638-.11518-.0432-.0576-.09762-.1135-.05433-.05444-.1136-.09763-.0576-.04474-.11516-.0928-.11517-.0928-.11518-.08794-.05758-.04165-.0576-.04315-.05757-.03992-.11518-.07524-.11517-.0656-.05758-.02877-.11517-.0656-.11518-.07042-.05759-.03194-.05758-.03366-.11517-.0592-.05758-.02553-.05759-.03208-.11517-.05603-.0576-.02394-.05757-.02566-.11517-.04474-.0576-.02553-.05757-.0241-.11518-.0559-.05759-.0305-.11517-.04962-.11517-.04474-.11518-.04963-.05759-.02877-.11517-.04963-.11517-.04474-.0576-.02394-.11516-.04647-.11518-.04474-.11517-.04963-.05759-.03036-.05759-.02553-.05759-.03208-.05759-.02553-.05759-.03208-.05758-.02553-.05759-.03208-.05759-.02553-.05759-.03208-.05759-.0272-.11517-.0656-.0576-.03675-.11517-.0784-.05759-.04315-.11517-.08638-.05759-.04316-.11517-.09751-.11045-.11046-.09594-.11517-.04162-.05762-.07513-.11517-.064-.11517-.04802-.11518-.01597-.0576-.03037-.11518-.0144-.0576-.01766-.11518-.0032-.11517.0032-.05762.01766-.11517.0144-.0576.03037-.11518.01597-.0576.04803-.11519.06399-.11517.03678-.0576.07997-.11035.09594-.09763.11045-.08796.05758-.03992.05759-.04165.11517-.06883.11517-.05762.0576-.02395.05758-.02569.11518-.03992.11517-.03208.05759-.01595.11517-.02719.11517-.01754.0576-.0029.11517-.0065.11517-.0177.05759-.0128.11517-.01755.0576-.0029.11517-.0013.11517.0013.05759.0029.11517.01754.0576.01281.11517.0177.05759.0029.11517.0013.11517.0013.05759.0029.11517.01754.11518.02252.05758.008.11517.0096.05759.008.05759.0096.11517.0241.11517.02236.0576.01114.11517.0272.05759.01594.05758.01281.11517.02877.05759.01595.05759.01281.05759.01595.05758.01281.11517.03035.05758.0177.0576.01754.05757.01921.11518.03834.05433.0177.05758.01595.03206.0096.08638.0144.01439-.08639.0095-.03194.01595-.0576.01767-.05446.0352-.11517.03037-.11518.0128-.0576.01443-.05762.01124-.0576.02228-.11518.02408-.11517.01913-.11518.0065-.0576.01913-.11518.0128-.0576.01755-.11518.0032-.0576.0016-.11519v-.28792l-.08638-.02554-.03206-.0128-.11191-.03675-.0576-.0177-.11517-.03034-.05759-.0128-.05758-.01597-.05759-.0128-.05758-.01597-.11517-.02877-.0576-.0128-.05758-.01597-.11517-.0272-.0576-.01114-.11517-.02237-.05758-.01122-.05758-.0128-.11517-.01755-.11518-.0096-.05758-.008-.11517-.02251-.11517-.01755-.05759-.0029-.11517-.0036-.0576-.0029-.11516-.0177-.0576-.0128-.11516-.01755-.0576-.0036-.11517-.0014H25.22067zm26.3164.11517l-.11518.0014-.05761.0029-.11518.01755-.05761.0128-.11517.01762-.05762.0029-.11517.0036-.05762.0029-.11517.0177-.05761.01273-.11518.0192-.05761.0065-.11517.01913-.05762.01453-.11518.02877-.11517.02877-.0576.01273-.05432.01611-.0576.0144-.11844.0351h.00049V24.46115l.0013.11518.0029.05761.01754.11517.01278.05761.0177.11517.0029.05761.0013.11518.0013.05761.0029.05761.01762.11517.01437.05761.01273.05762.01609.05761.02877.11518.01273.05762.0177.05761.01595.05761.02238.05761.04474.11517.04646.11518.0576.11517.072.11517.03833.05761.07839.11517.04165.05761.09594.11519.05445.05603.05589.05444.11517.09594.0576.04165.11518.07513.11517.0656.05761.0272.05762.03208.05762.02553.05761.03036.11518.04963.0576.0208.11518.03676.05762.01439.0576.01595.11518.02719.11517.02236.11518.02238.05761.0128.11517.0177.05761.0029.11518.0013h.97901l.11517-.0013.05762-.0029.11518-.0177.0576-.0128.05762-.01114.11517-.02238.0576-.01122.05763-.0144.11517-.02876.0576-.0144.11361-.03674.05445-.02236.0479-.02877.04323-.03366.05761-.0911.02877-.11046.02252-.11517.02238-.11517.01273-.11518.005-.0576.01765-.11518.01273-.05762.01762-.11517.0029-.0576.0036-.11519.0029-.05761.0177-.11517.01273-.05762.0177-.11517.0029-.05431.0013-.05761v-.11844l-.08638.02567-.03208.0128-.1119.03677-.05762.01754-.05762.01439-.11517.02877-.05761.0161-.05761.01274-.11518.02877-.05762.01439-.11517.01762-.11517.0096-.05762.008-.11517.02238-.05762.0097-.0576.008-.11518.005h-.0576l-.11519-.0013-.05761-.0029-.11517-.0177-.05761-.0144-.11517-.02876-.05762-.0144-.05761-.01753-.11517-.04006-.11518-.05114-.05762-.03366-.0576-.03524-.1136-.09267-.10235-.11045-.04488-.05762-.07027-.11517-.0272-.05761-.03034-.05761-.04647-.11518-.01596-.05761-.03035-.11517-.01437-.05762-.01762-.11517-.0029-.05761-.0013-.11518v-4.26138h2.76414l.01437-.08638.02079-.08965.0177-.1119.0029-.05761.0065-.11517.0177-.11518.01273-.0576.0177-.11518.0029-.05762.0013-.0576.0013-.11519.0029-.0576.0177-.11518.01278-.0576.01757-.11518.0029-.0576.0013-.11192v-.11844H51.6495V15.3055h-.17602zm30.23281 0l-.05762.0014-.0576.0029-.11518.0177-.0576.01273-.11518.01762-.05761.0029-.11517.0036-.11518.01115-.11517.02237-.11517.0192-.05762.0065-.11518.0192-.0576.0144-.05762.01272-.0576.01611-.0541.01273-.08986.02251-.08639.0144V18.35726l-.08638-.0144-.0323-.008-.11168-.02235-.05761-.008-.11518-.0096-.05762-.008-.11517-.02238-.11517-.0177-.05762-.0029-.11517-.0013h-1.09423l-.11517.0013-.05761.0029-.11518.0177-.11517.02238-.05762.008-.11517.0096-.05762.008-.05761.0097-.11517.02394-.11517.02238-.05762.01122-.05761.01439-.11517.02877-.05761.01439-.11517.0351-.05762.0192-.11518.03835-.11517.03848-.05762.02079-.05762.0208-.11517.04949-.05761.0305-.05762.02553-.05761.03208-.11517.0576-.05761.02713-.11517.06567-.05762.03675-.11518.07514-.11517.0784-.05762.04157-.11517.09437-.0559.05114-.05466.04805-.0973.09279-.04502.0479-.0973.10403-.10594.1135-.0956.11516-.04208.05762-.07829.11518-.07491.11517-.03676.05761-.06567.11517-.02712.05761-.03215.05762-.0254.05761-.0305.05761-.04949.11517-.0208.05761-.02072.05762-.03855.11517-.03855.11518-.019.05761-.0351.11517-.03057.11517-.01257.05761-.01617.05761-.01257.05762-.01617.05761-.02698.11518-.019.11517-.0072.05762-.0092.05761-.0098.05761-.01257.05761-.01791.11518-.0029.05761-.0013.11517v.11517l-.0013.05762-.0029.05761-.01791.11518-.01257.05762-.01788.11517-.0043.11517v.11517l.0043.11518.01788.11517.01257.05761.01791.11517.0029.05762.0013.11517v.17279l.0013.05762.0029.05761.01791.11518.01257.0576.0098.05762.0092.0576.0072.05763.019.11517.02698.11517.01617.05762.01257.0576.01617.05762.01257.0576.01617.05763.01437.0576.0351.11518.03855.11517.02072.0576.0208.05763.02418.0576.04603.11518.04496.11517.04949.11517.0305.05761.02712.05761.03337.05761.0323.05762.03675.05761.07491.11517.07829.11517.04035.05761.04316.05762.08638.11518.04323.05761.09729.1136.05466.05445.11348.09752.05762.04488.05762.04632.11518.09279.05762.04474.11517.07997.0576.03676.11518.0656.0576.02719.05763.03208.0576.02553.05763.03036.11517.04963.0576.0208.05762.0208.05762.0192.11518.03835.11517.03834.0576.0177.05762.01596.11517.02394.11517.02252.05761.01273.11517.0177.05762.0029.05761.0013h.97911l.05762-.0013.05761-.0029.11517-.0177.05761-.0144.05762-.01272.05761-.01611.11517-.03194.05761-.0177.11517-.03834.05762-.0208.05761-.0208.11518-.04963.05761-.03035.05761-.0272.05761-.0351.05761-.03365.05762-.04165.11518-.0848.05762-.04323.11517-.09751.11056-.11046.09729-.11517.0415-.0543.04833-.0576.0236-.03209.08176-.08638.03338.11843.0115.05761.0081.05431.0043.11517v.05761l.0013.11517.0029.05762.01792.11517.01257.05445.0098.05761.0081.03194.0043.08638H82.05714V15.30617h-.28798zm-38.4671 2.93667l-.11517.0013-.05758.0029-.11517.01754-.0576.01281-.11516.0177-.0576.0029-.11516.0036-.0576.0029-.11517.01754-.11517.02252-.05758.008-.11518.0096-.05759.008-.11517.02238-.11517.01921-.05758.0065-.11517.01913-.05758.01281-.11518.01921-.05758.0065-.11517.01913-.0576.01281-.05757.01122-.11518.02236-.05758.01114-.05759.01281-.05758.01122-.11517.02236-.05759.01114-.11517.0272-.05433.01595-.05758.0144-.11844.03516V27.22501h1.90035v-7.19839l.08638-.0144.03206-.008.11191-.02235.0576-.008.11516-.0096.0576-.008.11516-.02252.11518-.01754.05759-.0029.11517-.0013h.17276l.11517-.005.11517-.01754.0576-.01281.11516-.01595h.0576l.11516.01595.0576.0128.11517.01755.05759.0036.11517.0013.11517.0013.05759.0029.11517.01754.05762.0128.05761.01123.11518.0223.0576.01295.05763.01596.11517.03992.11517.04963.05762.0305.0576.02712.05763.03517.11517.07524.11033.08469.09763.09122.04323.04963.0847.11033.04006.05761.06071.11518.02252.0576.03992.11518.01921.05762.03352.11517.01921.11517.0095.11517.0177.11517.01278.05761.01754.11517.0036.05761.0013.11518V27.2249h1.90035v-6.16166l-.0013-.05761-.0036-.05761-.01754-.11517-.01278-.05761-.0096-.05762-.0095-.05761-.0065-.05762-.01913-.11517-.01437-.05761-.02877-.11517-.01437-.05761-.01757-.05761-.04006-.11517-.04963-.11518-.03036-.0576-.05761-.11518-.0257-.0576-.03192-.05763-.0272-.0576-.06868-.11518-.04172-.0576-.03992-.05762-.08796-.11348-.09763-.10403-.0543-.04806-.1136-.0911-.11517-.09122-.05761-.04316-.11518-.07042-.05761-.02711-.05761-.03209-.05762-.02553-.05761-.03208-.05761-.02553-.05761-.03208-.05761-.02553-.05762-.0305-.11517-.04963-.05762-.02072-.11517-.0369-.11517-.03035-.05761-.0128-.05761-.01596-.05761-.0128-.05761-.01596-.11518-.02719-.11517-.02238-.11517-.02236-.05761-.0128-.11518-.01755-.05762-.0029-.11516-.0065-.11518-.0177-.05762-.0128-.11517-.01755-.05761-.0029-.11517-.0013H43.30284zm16.12417 0l-.11517.0013-.05761.0029-.11517.01754-.05761.01281-.11517.0177-.05762.0029-.11518.0065-.05762.008-.0576.0096-.11518.0241-.11517.02238-.05761.01114-.05761.0144-.05761.0128-.11517.03036-.05762.01762-.05761.01754-.05761.01921-.11518.03833-.11517.03848-.05761.0208-.05761.02072-.11517.04963-.05761.0305-.05761.02553-.05762.03208-.11517.05761-.05761.02712-.11518.0656-.0576.0369-.11519.07513-.11517.0784-.05762.04165-.11517.09595-.11517.11033-.05762.05762-.11517.11517-.05588.05761-.05445.05762-.09763.11517-.08796.11517-.03992.05762-.04165.05761-.03517.05761-.07042.11517-.03517.05761-.06402.11517-.0512.11518-.02239.05761-.04963.11517-.02877.05761-.04963.11517-.02072.05761-.04007.11518-.03675.11517-.0177.05762-.03035.11517-.01278.05761-.01437.05761-.01122.05761-.0223.11518-.0241.11517-.01916.11518-.0065.0576-.0192.11518-.01279.05762-.01757.11517-.0029.0576-.0013.11518v1.32451l.0013.0576.0029.05762.01757.11517.01278.05762.01767.11517.005.05762.01278.11517.0097.0576.02397.11518.02238.11517.01278.05761.01598.05762.03517.11518.01754.05761.0305.11517.01437.05762.03676.11517.0208.05762.0495.11518.02876.0576.04963.11518.02238.05762.0513.11517.03034.05762.0687.11518.06882.11517.03366.0576.03676.05763.07996.11517.09437.11517.05114.05761.09594.1136.04488.05445.09752.09752.11033.09121.05762.04632.11518.09122.11517.08154.05762.03848.11517.07513.05761.03675.11517.0656.05761.02719.05762.03035.05761.0241.05761.02553.11518.04165.0576.01921.11518.03834.11517.03834.05762.0177.05761.01595.11517.02394.11517.02252.05761.01273.11518.01762.05761.0029.11517.0013h.86388l.11517-.0013.05762-.0029.11517-.01762.05762-.01439.05761-.01273.05761-.01611.05762-.01439.11517-.03517.11518-.03834.0576-.0208.05762-.0208.05762-.02553.0576-.0241.05762-.03035.05762-.02719.11517-.0656.11517-.07514.0576-.04165.05762-.04632.05762-.04963.11517-.11044.11056-.11518.091-.1119.05588-.08965.0305-.08638.0415.08638.0013.03208.01093.05761.0036.05431.01273.11517.02238.11518.0099.05761.008.05761.0043.11517V27.22612h1.78535v-8.52276l-.05762-.05761-.08638-.005-.03229-.008-.05762-.01122-.05409-.01596-.11517-.03517-.05762-.0177-.11517-.03035-.05761-.01281-.11517-.02877-.05762-.01595-.11517-.0272-.05761-.01113-.11517-.02236-.05761-.01122-.11518-.02236-.05762-.008-.11517-.0096-.05762-.008-.11518-.02252-.11517-.01754-.0576-.0029-.11518-.0036-.05762-.0029-.11517-.0177-.05761-.01281-.11517-.01754-.05762-.0029-.11517-.0013h-1.2094zm-24.76212.0002l-.11517.005-.11517.01754-.05758.0128-.11518.0177-.05759.005-.11517.01282-.05758.0096-.11517.0241-.11518.02238-.05759.01114-.11517.02719-.05759.01595-.11517.02877-.05758.0128-.0576.0177-.05757.01596-.0576.02236-.05757.0208-.0576.02394-.11517.04474-.05759.0241-.11517.04632-.05759.02238-.11517.05114-.11517.06402-.0576.03517-.11516.06883-.0576.03352-.11517.07524-.05759.03992-.05758.04316-.11517.08638-.0576.04316-.11516.09762-.1136.11034-.05443.0576-.09752.11519-.0432.05762-.08637.11517-.0432.0576-.04003.05763-.07513.11517-.06884.11518-.03194.05762-.03352.0576-.05758.11518-.02408.0576-.02722.05762-.02397.05762-.0288.0576-.0496.11518-.02082.05762-.02082.05761-.01923.05761-.03835.11517-.03835.11517-.01765.05761-.01596.05761-.01281.05762-.02228.11517-.01125.05761-.02408.11518-.02228.11518-.01124.0576-.02238.11518-.01124.11517-.0032.11517-.0032.0576-.01754.11519-.01281.05762-.01767.11517-.0032.05762-.0016.0576V23.2533l.0016.11517.0032.0576.01767.11518.0128.0576.01755.11518.0032.05761.0032.11517.01124.11518.02238.11517.01124.0576.02228.11518.01125.05762.02722.11517.01595.05761.0128.05761.01596.05761.0128.05762.03038.11518.01757.05761.03678.11517.04004.11517.02082.05761.0496.11518.02879.0576.02397.05763.02722.0576.02408.05762.05758.11517.03352.0576.03194.05763.06884.11517.07513.11518.04004.0576.04319.05762.08638.11517.04319.05762.09752.11517.11045.11517.05759.05603.05759.05445.11517.09752.05758.04316.0576.04474.11516.08165.11518.0687.05759.02718.11517.05762.05759.03208.05758.02553.05759.03208.05759.02553.05759.03035.11517.04963.05759.0208.11517.03676.05759.0144.05758.01594.11517.0272.11517.02235.11518.02238.05759.01281.11517.0177.05759.0029.05758.0013h.92138l.11517-.005.0576-.008.11517-.02238.05759-.01122.11517-.02236.05759-.0128.05759-.01596.11517-.04006.05759-.02394.11517-.04632.11517-.04646.11518-.0576.05759-.03518.11517-.07839.05758-.04323.11518-.08638.05758-.04316.11033-.0975.0496-.05446.04803-.05603.08953-.10876.0496-.04632.0288-.03036.0848-.04488v.28804l.0016.11517.0032.0576.01767.11518.02238.11203.01124.08953.0016.08638h1.78518v-8.52263l-.08638-.02554-.03206-.0128-.05758-.01922-.05433-.01913-.11517-.03848-.05758-.01754-.0576-.0177-.11517-.03036-.05759-.0128-.05759-.0144-.05759-.01114-.11517-.02238-.05759-.01122-.05758-.0128-.05759-.01115-.11517-.02236-.05759-.01122-.05759-.0128-.11517-.01914-.05758-.0065-.05759-.0096-.11517-.02252-.11517-.01754-.0576-.0029-.11516-.0036-.0576-.0029-.11517-.0177-.05759-.0128-.11517-.01755-.05758-.0029-.05758-.0013h-1.38208zm33.2849.0001l-.0576.0013-.05762.0029-.11518.0177-.05762.0128-.11517.01755-.0576.0036-.11518.0029-.05762.0029-.11517.01762-.05762.0128-.11517.01755-.11517.0065-.05762.0029-.11517.01762-.11517.02238-.11518.0161-.11517.01914-.05762.0128-.05761.01123-.11518.0223-.0576.01123-.05763.0128-.0576.01123-.11518.0223-.05762.01122-.11517.0241-.11517.0223-.05761.01122-.05762.01439-.05762.0128-.05761.01597-.0541.0128-.08986.02237-.08638.01439v8.52267H66.97064v-7.19829l.05762-.05761h.17626l.1117-.0013.0576-.0036.11518-.01754.0576-.01281.11518-.0177.05761-.0029.11517-.0013h.11517l.05761-.0013.05761-.0029.11518-.0177.05762-.01274.11517-.0177.05762-.0013.0576.0013.11518.0177.05762.01273.11517.0177.05761.0029.11517.0013.05761.0013.05762.0029.11518.0177.11517.0241.11517.0223.05762.01282.11517.03366.05761.01913.11518.04006.05761.02236.11517.0576.11517.07357.05761.04165.1135.09594.05465.05445.0956.1136.07716.11517.0587.11517.02417.0576.02598.05763.04136.11517.01437.0576.01273.05763.02252.11517.01257.05762.0179.11517.0029.0576.0013.11519v5.64348h1.9582v-5.64348l-.0021-.11518-.0029-.05762-.0179-.11517-.01258-.05761-.0179-.11517-.0029-.05761-.0013-.11518-.0013-.11517-.0029-.05761-.01792-.11517-.01257-.05762-.01156-.05761-.0218-.11518-.0133-.05761-.03338-.11517-.019-.05761-.04028-.11518-.0208-.0576-.04948-.11518-.0305-.05762-.0254-.05761-.03215-.05761-.02712-.05761-.06567-.11517-.03676-.05762-.08008-.11518-.0956-.11517-.05467-.05761-.11348-.11045-.11517-.09594-.05762-.04165-.11517-.07839-.11518-.07514-.05762-.03676-.11517-.0656-.05761-.02726-.05761-.03035-.05762-.0241-.05761-.02553-.11517-.04165-.05761-.0192-.11517-.03835-.11518-.03834-.05761-.0177-.05761-.01754-.11517-.03035-.05761-.0128-.05762-.0144-.11517-.01913-.05762-.0065-.05761-.0096-.11518-.02238-.11517-.01762-.05761-.0029-.11517-.0065-.11518-.01754-.05762-.0128-.11516-.0177-.05762-.0029-.11518-.0013H67.94978zm19.349 0l-.05762.0013-.0576.0029-.11518.0177-.11517.02236-.05761.008-.11518.0096-.11517.01762-.05761.01439-.11517.02877-.05762.0128-.05761.01596-.11518.02877-.11517.03194-.11517.04007-.05762.0241-.11517.04632-.11518.04474-.05761.02553-.05761.02569-.05762.03194-.11517.06883-.11517.07513-.11518.07839-.11517.08324-.05762.04158-.05761.04474-.05762.04315-.11517.0975-.11056.11046-.0973.11517-.04322.05762-.08638.11518-.04323.0576-.0784.11518-.0702.11517-.06918.11517-.0351.05762-.06387.11518-.0513.11517-.02251.0576-.04603.11518-.02418.05762-.0208.0576-.04027.11519-.03805.11517-.03855.11517-.0351.11517-.01437.05761-.02877.11518-.01437.05761-.019.11517-.0072.05761-.019.11517-.02238.11518-.0081.05762-.0065.11517-.0029.0576-.01778.11518-.01273.05761-.01791.11518-.0029.05761-.0013.05761V23.2523l.0013.0576.0029.05762.0179.11517.01274.0576.01778.11518.0065.11518.0029.0576.0179.11518.02419.11517.0218.11517.01156.05762.02697.11518.01617.0576.01257.05762.01617.0576.02877.11518.01437.0576.03675.11518.0208.05762.02418.0576.04603.11518.04495.11517.02532.0576.02418.05763.0305.0576.02712.05763.06567.11517.03675.0576.0369.05763.0766.11517.0397.05762.08357.11518.04136.0576.04496.05763.04323.0576.09729.11518.11056.1136.0576.0543.11518.09763.05761.04323.11518.08638.05761.04315.11517.0784.11517.06868.05761.03366.05761.0272.05761.03193.05762.0257.05761.03193.05762.02566.05761.03194.05761.02566.05762.03035.11518.04963.0576.02072.11518.04006.05761.01921.11518.03518.0576.0144.05763.01594.0576.01273.05762.0144.05762.01121.11517.02238.0576.01122.05762.01273.11517.01921.05761.0065.11517.01913.05761.01281.11517.0177.05761.0029.11518.0013H88.8536l.11518-.0013.05761-.0029.11517-.0177.05762-.0128.11518-.01755.05762-.005.11517-.01273.05761-.0097.11517-.02394.11518-.02236.05761-.01122.05761-.01439.05762-.01273.05761-.0161.05762-.0144.11517-.0351.05762-.0192.17276-.05762.17276-.0576.11517-.04008.10888-.0512.04603-.03353.0692-.0912.0397-.11034.02417-.11517.02252-.11518.01257-.0576.019-.11518.0072-.0576.019-.11518.01257-.05761.019-.11517.0072-.05762.019-.11517.01273-.05762.01791-.11517.0091-.11517.01791-.11518.01273-.05445.0098-.0576.008-.03195.005-.08638-.08638.005-.08986.02238-.11169.0415-.05762.0241-.11517.04165-.11518.03834-.05762.01913-.0576.01934-.11518.03834-.0576.01921-.11518.03834-.05762.01921-.0576.01913-.11518.03517-.05762.0144-.05762.01595-.0576.01281-.05762.0144-.0576.01121-.11519.0223-.11517.0241-.11517.01913-.05761.0065-.11517.01913-.05762.01281-.11518.01754-.0576.0029-.11518.0036-.05762.0029-.11517.0177-.05761.01281-.11517.01754-.05761.0036-.11517.0013h-.28794l-.05761-.0013-.05761-.0036-.11517-.01754-.05761-.0128-.11517-.0177-.11518-.0096-.11517-.0177-.05762-.01432-.05762-.0128-.11517-.03036-.05761-.0177-.11518-.03676-.11517-.04006-.05761-.02072-.05762-.02566-.05761-.02553-.05761-.03208-.05762-.03194-.11517-.07514-.05762-.04172-.0576-.04632-.05762-.04963-.11518-.11034-.0576-.0576-.11057-.11518-.0956-.11517-.08009-.11518-.06905-.11517-.03337-.0576-.02712-.05762-.0305-.0576-.04949-.11519-.0415-.11517-.01958-.0576-.0369-.11518-.01553-.05761-.02418-.11518-.02418-.1119-.03337-.11844H91.38834l.01437-.08638.02072-.08964.0179-.11191.0029-.05762.0013-.11517.0013-.11517.0029-.05761.01792-.11517.01257-.05761.0179-.11518.0029-.0576.0013-.11518v-.57595l-.0013-.11517-.0029-.05762-.0179-.11517-.01257-.05761-.01791-.11517-.0029-.05761-.0065-.11517-.008-.05762-.0098-.05761-.02418-.11518-.02193-.11517-.01334-.0576-.03337-.11518-.019-.05761-.01958-.05761-.019-.05761-.03855-.11517-.03805-.11517-.01958-.05761-.0415-.11518-.02532-.05762-.0259-.05761-.03172-.05762-.0323-.05761-.0702-.11517-.07027-.11517-.0351-.05761-.08177-.11517-.04496-.05761-.04316-.05761-.0973-.11518-.11055-.11517-.05762-.05603-.05761-.05445-.11518-.09751-.0576-.04315-.05762-.04474-.11517-.08166-.05761-.03517-.11517-.07028-.05761-.03517-.11518-.06402-.11517-.05121-.05761-.02236-.11518-.04632-.05762-.0241-.11517-.04165-.11517-.03834-.11517-.03517-.05762-.01439-.11518-.02877-.0576-.01439-.11518-.01762-.11518-.0096-.0576-.008-.11518-.02236-.11517-.0177-.05762-.0029-.0576-.0013H87.29826zm8.46508 0l-.11518.0013-.0576.0029-.11518.01754-.05762.0128-.11517.0177-.0576.0029-.05762.0013-.11517.0013-.05762.0036-.11517.01755-.11517.02236-.05762.0081-.11518.0096-.05761.008-.11517.02236-.05761.01122-.11517.0223-.05762.01122-.05761.0128-.05761.01123-.11517.0223-.05762.01122-.05761.0128-.11517.02237-.05761.01114-.05762.01294-.05761.0159-.05762.01762-.11168.03366-.05762.01114-.0323.0081-.08626.005-.05768.05762v8.52276h1.90038V19.9692l.11867-.0013.05761-.0029.1118-.0177.05747-.01281.11529-.01754.05747-.0029.11529-.0013h.17279l.11517-.0013.05761-.0036.11517-.01754.05761-.01281.11518-.0177.05762-.0029.11517-.0013.11505.0013.05769.0029.11505.0177.0577.0128.11505.01755.05769.0036.11505.0013h.23044l.11506.0013.0577.0029.11168.01754.08986.0208.08627.01439.0415-.08638.0036-.03208.0236-.11192.02418-.11517.01791-.11517.0029-.05762.0065-.11517.01791-.11517.01273-.05762.01778-.11517.0029-.05761.0013-.11518v-.57586l-.08638-.0013-.08975-.01122-.1118-.02236-.11518-.01754-.05761-.0029-.11518-.0013H95.8787zM35.18332 19.8549h.05759l.11518.005.05758.0081.11517.02238.11517.01754.0576.0036.11516.0013h.17276l.11518.005.11517.01754.05433.01281.0576.0096.03205.0081.08638.005V25.2689l-.08638.06085-.03206.01913-.1119.07042-.0576.03208-.05758.03352-.05759.0272-.11517.0576-.05758.03035-.11518.04963-.05758.0208-.05759.0208-.11517.03834-.11517.03366-.11518.02394-.11517.02238-.05759.01281-.11517.0177-.05759.0029-.11517.0013h-.28793l-.11518-.0013-.05759-.0029-.11517-.0177-.05759-.0128-.05758-.01123-.11517-.0223-.05758-.01282-.0576-.01595-.11517-.04006-.11517-.04963-.11517-.0576-.05758-.03353-.0576-.03208-.11516-.07513-.0576-.04165-.11516-.09594-.05601-.05445-.05443-.05603-.09594-.11517-.04162-.05761-.0784-.11517-.03835-.05762-.07198-.11518-.03037-.0576-.02722-.05762-.0432-.11517-.03834-.11517-.03847-.11518-.01913-.05762-.0352-.11517-.0144-.0576-.02878-.11518-.0144-.05761-.01764-.11518-.0095-.11517-.01757-.11517-.01281-.05761-.01767-.11517-.0032-.05762-.0016-.11518v-.51831l.0016-.11517.0032-.05762.01767-.11517.0128-.0576.01914-.11519.0065-.05762.01913-.11517.02408-.11517.02228-.11517.0128-.0576.03363-.11519.01913-.0576.04004-.11518.02082-.05761.02553-.05762.02408-.05761.03037-.05761.0272-.05761.06558-.11517.03677-.05761.07514-.11517.03847-.05761.08153-.11517.09594-.1136.05444-.05432.1136-.09594.05758-.04172.11518-.07828.11517-.07525.05758-.03675.11517-.06402.11517-.05114.11518-.0415.05759-.01934.05758-.01913.11517-.03359.05758-.0128.11518-.0223.11517-.0241.11517-.0177.0576-.0029.11516-.0065.11518-.01755.11517-.02238.05759-.0081zm24.70453.0001l.11518.005.11517.01762.05762.0128.11516.01755.11518.005H60.57893l.11519.0013.0576.0036.11518.01754.11168.02238.08987.01122.08638.0013v5.29825l-.08638.03991-.03229.02238-.0576.03517-.0541.03676-.11517.07356-.0576.03208-.05763.03193-.05762.02566-.0576.02553-.11518.04488-.11517.04474-.05761.02238-.05761.01596-.05761.0177-.11518.0272-.11517.02237-.11517.02238-.05761.01273-.11517.0177-.05762.0029-.05761.0013h-.34558l-.11517-.005-.05762-.008-.05761-.0096-.11518-.0241-.11517-.0223-.0576-.01294-.05762-.01595-.11517-.03675-.05762-.0192-.11517-.04324-.11517-.0576-.05761-.03518-.11518-.07514-.11517-.07839-.11056-.08795-.09729-.10403-.04316-.0559-.08638-.11517-.04323-.0576-.0785-.11518-.03517-.05762-.05762-.11517-.04632-.11518-.04632-.11517-.0241-.0576-.04006-.11518-.03194-.11517-.01598-.0576-.02718-.11519-.01122-.0576-.01114-.05763-.02238-.11517-.01278-.0576-.0177-.11518-.0029-.0576-.0013-.05763v-1.03655l.0013-.11517.0029-.05761.0177-.11518.01278-.0576.02238-.11518.02397-.11517.01595-.05761.0177-.05761.03834-.11518.03834-.11517.01921-.0576.04165-.11518.02553-.0576.0241-.05762.03036-.05762.0272-.0576.0656-.11518.0369-.05762.08007-.11517.09561-.11517.05467-.0576.11348-.1136.11518-.10405.0576-.04632.05763-.04164.11517-.07513.11517-.0656.11517-.05762.11518-.04963.0576-.0208.11518-.04006.11517-.03676.05762-.01754.05762-.01439.11517-.02877.11517-.0241.11518-.01114.11517-.0036.05762-.0029.11517-.01754.05761-.0128.11517-.01763zm27.46869.0003h.34556l.11518.0013.0576.0029.11518.01753.0576.01453.11518.02877.05762.0144.11517.03674.05761.02072.11518.04963.0576.0305.05763.02712.0576.03524.11518.07524.11056.0847.0973.09121.04316.04963.08638.11034.04323.05762.0784.11517.0351.0576.05762.11518.02252.05761.04028.11518.019.05762.03337.11517.01323.05762.0218.11517.01156.05761.01257.05761.0179.11518.0029.0576.0013.11203v.17593H85.3982l.03338-.1182.02072-.11203.0072-.05761.019-.11517.01437-.05762.02877-.11517.0143-.05761.0369-.11518.0208-.05762.02418-.0576.04603-.11518.04668-.11517.0576-.11517.07312-.11518.04208-.05761.0956-.11517.11057-.11517.11517-.11034.05762-.04805.05762-.04474.11517-.07042.0576-.02712.05762-.0305.11518-.04963.11517-.03992.11517-.02877.11517-.02238.11518-.0241.05761-.0096.05761-.008zm-8.63795.0013l.0576.0029.11518.0177.05762.01272.11517.01762.0576.0029.11519.0013.11517.0013.05762.0029.11517.01762.0576.01273.11518.01921.11517.01595.11518.02236.11168.0177.11866.005v5.18287l-.08638.06085-.0323.01913-.11168.07042-.05762.03366-.11517.06869-.11518.06884-.11517.0576-.05762.02237-.11517.04006-.11518.03834-.11517.03834-.05762.0177-.0576.01595-.11518.02394-.11517.02252-.05761.01273-.11517.0177-.05762.0029-.11518.0013h-.23034l-.11517-.0013-.05762-.0029-.11518-.0177-.05762-.01273-.0576-.01122-.11518-.02236-.05762-.01281-.11517-.03366-.11517-.03834-.0576-.0208-.11518-.04632-.0576-.02567-.11519-.06718-.05761-.04164-.11517-.0848-.05761-.04316-.11056-.09752-.09729-.11045-.04323-.05761-.0847-.11518-.04208-.0576-.06848-.11518-.02712-.0576-.0305-.05762-.02418-.05762-.02532-.0576-.0415-.11519-.03855-.11517-.03856-.11517-.019-.05761-.03338-.11517-.02418-.11518-.02252-.11517-.01257-.05761-.01791-.11517-.0029-.05762-.0036-.11517-.0029-.05761-.01791-.11517-.01257-.05761-.01791-.11517-.0029-.05761-.0013-.11517v-.05761l.0013-.11517.0029-.05762.01791-.11517.01257-.05761.01791-.11518.0029-.0576.0036-.11518.01101-.11517.02238-.11517.02252-.11517.02418-.11518.03338-.11517.019-.05762.03855-.11517.03855-.11517.02072-.05762.0208-.05761.02532-.05762.02418-.05761.0305-.05762.02712-.05761.06567-.11517.03675-.05762.08009-.11518.0956-.11517.11056-.11348.05761-.05445.11518-.09594.11517-.07997.05761-.03676.11517-.06567.05762-.02712.05761-.03208.05761-.02553.05762-.0305.11518-.0495.11517-.04005.05762-.01595.05761-.01281.11517-.02238.11517-.02395.11517-.0177.05761-.0029.11518-.0065.11518-.01762.0576-.01273.11518-.0177zM24.87537 31.54457l-.05758.0013-.0576.0036-.11516.01754-.11518.02236-.05759.0081-.11517.0096-.11517.01754-.0576.01439-.05758.0128-.11517.03036-.0576.01754-.05758.0177-.11518.03848-.11517.03834-.05759.0192-.11517.0415-.0576.02567-.05757.02395-.0576.0305-.05758.02712-.11518.0656-.05759.0369-.11517.07514-.11517.07828-.0576.04172-.11516.09595-.11518.11033-.05759.05761-.05759.05761-.05759.05762-.11045.11517-.09594.11517-.07997.11518-.03678.05761-.06557.11518-.02722.0576-.03194.05762-.02564.0576-.03194.05763-.02564.0576-.03194.05762-.02564.0576-.03037.05763-.0496.11517-.0208.0576-.03679.11518-.0144.0576-.03037.11519-.01754.05762-.03532.11517-.01597.05762-.0207.11517-.01608.11518-.02238.11517-.01766.11517-.0032.0576-.0064.11517-.01754.11518-.01283.0576-.01766.11517-.0032.0576-.0016.11517V35.97933l.0016.11518.0032.0576.01766.11517.01283.0576.01754.11517.0032.0576.0063.11518.0081.0576.02238.11517.01125.0576.02227.11517.01125.0576.02722.11518.01597.0576.0288.11517.01282.0576.01754.0576.01597.0576.02238.0576.04488.11518.04477.11517.02553.0576.02407.0576.03037.0576.0576.11517.02563.0576.03194.0576.02722.0576.06557.11517.03678.0576.07997.11517.09448.11517.05106.0576.09605.11359.0928.10404.10392.0927.1136.0928.05759.0465.11517.0864.11517.0751.0576.0335.05758.0353.0576.0319.05758.0335.11518.0577.05759.0239.11517.048.05759.0239.11517.0416.11517.0383.0576.0177.05758.0176.05758.0144.11518.0288.05759.0144.05759.0112.11517.0224.05759.0111.05759.0128.11517.0177.0576.003.11516.001h.92139l.0576-.001.05758-.003.11518-.0177.11517-.0224.11517-.0161.11517-.0192.11518-.0241.11517-.0223.11517-.0305.05601-.0224.09751-.0688.0352-.0463.02397-.0527.01606-.056.02397-.11517.02238-.11517.008-.0576.0048-.11517v-.34551l-.08638.0288-.03205.0177-.05759.0224-.05433.0239-.11517.0401-.11517.0319-.0576.016-.05758.0128-.0576.016-.05758.0128-.11518.0288-.05758.0144-.11517.0177-.11517.01-.0576.008-.11516.0224-.11518.0177-.05759.003-.05759.001h-.23034l-.0576-.001-.05758-.003-.11518-.0177-.05759-.0128-.11517-.0191-.05759-.006-.11517-.0192-.05759-.0144-.11517-.0288-.0576-.0144-.11517-.0368-.05759-.0208-.11517-.0495-.05758-.0305-.05759-.0255-.05759-.0321-.05759-.0271-.11517-.0657-.11517-.0751-.0576-.0416-.05758-.0463-.11518-.10404-.11517-.1135-.1136-.11516-.10392-.11517-.04645-.0576-.08154-.11518-.03847-.0576-.07513-.11517-.03678-.0576-.03205-.0576-.03194-.0576-.02564-.0576-.02553-.0576-.04476-.11518-.04488-.11517-.02238-.0576-.01597-.0576-.01754-.0576-.01283-.0576-.0288-.11517-.01596-.0576-.02722-.11517-.01125-.0576-.02227-.11517-.01125-.0576-.01282-.0576-.01754-.11518-.0032-.0576-.0016-.0576V35.2316l.0016-.0576.0032-.0576.01754-.11517.01282-.0576.0096-.0576.0096-.0576.0065-.0576.0207-.11518.03363-.11517.01766-.0576.01754-.0576.03194-.11518.01597-.0576.02238-.05763.04488-.11517.04476-.11517.02553-.05762.02564-.0576.03194-.05762.03205-.05762.03678-.0576.07513-.11518.07839-.11517.08807-.11517.04949-.0576.11045-.11519.11517-.11044.11517-.09594.0576-.04165.11516-.0784.0576-.03834.11517-.07198.11517-.05761.11517-.04647.11517-.04632.0576-.02394.05758-.0208.11518-.03675.11517-.0305.0576-.01273.05758-.0144.11517-.0177.11518-.0096.05759-.008.11517-.02235.11517-.01762.11517-.005.11518.0013.05759.0029.11517.0177.05759.0128.11517.01755.11517.0065.0576.0036.11517.01754.11517.0241.11517.0223.05758.01122.0576.01439.05757.0128.11518.03036.11517.03517.05433.0177.05758.01595.03206.0096.08638.01439.0432-.08638.0047-.03208.01922-.05761.01125-.05431.01442-.05761.01752-.11518.0095-.11517.0081-.05761.02238-.11191.008-.03208.01442-.08638-.08638-.04632-.03205-.0096-.05759-.02252-.05433-.01754-.05758-.01921-.11517-.03352-.05758-.01294-.11518-.0223-.11517-.0241-.05759-.0096-.11517-.01281-.0576-.005-.11516-.0177-.05758-.01281-.11518-.01754-.05759-.0036-.11517-.0013h-.63344zm67.89428.0576l-.11517.0013-.05762.0029-.11517.01755-.0541.0128-.0576.0096-.0323.0081-.08638.005-.05762.05763V39.66396h.86388V31.60186h-.17627zm-18.42762.0001l-.11518.0013-.05761.0029-.11518.0177-.11517.02237-.0576.008-.11518.0065-.05762.0029-.11517.0177-.05762.01273-.11168.0177-.05762.0029-.11866.0013v7.94681H76.18507l.11519-.001.0576-.004.11518-.0176.0576-.0128.11518-.0191.05762-.006.11517-.0191.0576-.0144.05762-.0128.11518-.0304.11517-.0368.11517-.0447.11517-.0481.05762-.0239.11517-.0576.05762-.0337.0576-.0319.11519-.0736.11517-.0928.11517-.11045.05589-.0576.10246-.11517.04488-.0576.07027-.11518.02712-.0576.03215-.0576.0254-.0576.0305-.0576.04668-.11517.01553-.0576.01791-.0576.02697-.11517.019-.11518.0072-.0576.0092-.0576.0098-.0576.01257-.0576.01791-.11518.0043-.11517v-.1152l-.0043-.11517-.0081-.0576-.0098-.0576-.02418-.11518-.0218-.11517-.02877-.11517-.04035-.11517-.04949-.11518-.0305-.0576-.02711-.0576-.07028-.11517-.04488-.0576-.04783-.0576-.11056-.11517-.05761-.0559-.11517-.10403-.05761-.0463-.05762-.0416-.11517-.0752-.05761-.0319-.05761-.0319-.05762-.0257-.05761-.0257-.11518-.0415-.0576-.0192-.1117-.0383-.0323-.0128-.08638-.0257.08638-.0576.0323-.0127.05761-.0337.0541-.0257.11516-.0703.05761-.0431.11056-.0912.0973-.0912.04501-.0479.09268-.10404.04488-.056.04323-.0576.07027-.11518.02712-.0576.05762-.11517.0305-.0576.04668-.11517.03338-.11517.01257-.05761.01437-.05761.01791-.11517.0029-.05762.0013-.11517V33.38613l-.0043-.11517-.0179-.11517-.01438-.05761-.01257-.05762-.03338-.11518-.04668-.11517-.0305-.05761-.06049-.11517-.0323-.05762-.03676-.05761-.08008-.11518-.0956-.11348-.05467-.05445-.11348-.09595-.05761-.04165-.11517-.07525-.05761-.03194-.11518-.0607-.05762-.0305-.05761-.02394-.05761-.0257-.05762-.02071-.11517-.04006-.11517-.03676-.05761-.01762-.11518-.03035-.0576-.01273-.05763-.0144-.11517-.0192-.05762-.0065-.11517-.01921-.05761-.01273-.11517-.0177-.05761-.0029-.11518-.0013h-1.43975zm.86379.76628h.0576l.05763.0065.11517.0208.11517.01114.11518.0013h.11517l.05762.0013.0576.0036.11518.01754.0576.01281.05763.01122.11518.0223.0576.01294.05763.01582.11517.04006.11517.04963.05762.03035.05762.0272.11517.0656.11348.07513.05467.04172.0956.09594.08008.11034.0351.05761.05467.11518.03517.11517.01257.05761.01437.05762.01791.11517.0029.05761.0013.11518v.11517l-.0013.05761-.0029.05762-.0179.11517-.01438.05762-.0305.11518-.01733.05761-.05467.11517-.0351.0576-.08008.11359-.0461.0545-.0495.0495-.11055.0881-.05762.0383-.05761.0367-.05761.0321-.11518.0607-.05762.0303-.0576.0224-.05762.0241-.05762.016-.05762.0175-.11517.0273-.11518.0192-.0576.006-.11518.0191-.05762.0128-.11517.0177-.0576.003-.05762.001h-1.49736v-2.70655l.11866-.0333.0576-.01123.0541-.008.11518-.005h.34551l.11517-.0013.05761-.0029.11518-.01762zm-11.05658 1.19132l-.0576.0013-.05763.0029-.11517.0177-.0576.01281-.11518.01754-.05761.0036-.11517.0065-.11517.01754-.05762.0144-.11518.02876-.05762.0144-.0576.01753-.11518.04007-.11517.04963-.05761.03036-.11517.05761-.05762.0272-.11517.07041-.11518.08795-.05762.04647-.11056.0911-.0973.09763-.08817.11033-.04143.0576-.04315.0576-.0784.11517-.03675.0576-.06567.11518-.02712.0576-.0305.0576-.02418.0576-.02532.0576-.0208.0576-.04028.11517-.0369.11517-.0172.0576-.03057.11518-.01257.0576-.01437.0576-.019.11517-.0072.0576-.019.11518-.01257.0576-.0179.11518-.0043.11517v.86381l.0013.11517.0029.0576.01792.11517.01257.0576.019.11516.0072.0576.019.11517.01437.0576.01257.0576.03057.11517.03675.11517.04503.11518.04596.11517.04668.11517.02712.0576.06387.11517.0351.0576.07027.11517.0369.0576.09268.11518.11056.11517.11517.1136.05761.0545.11517.0959.05762.0417.11518.0751.11517.0656.05762.0272.05761.0303.05761.0241.05762.0255.05761.0208.11517.0401.11517.0367.05761.0176.11518.0303.05761.0128.05761.0144.11517.0191.05762.006.11517.0191.05762.0128.11517.0177.05761.003.11518.001h.34556l.11518-.001.05762-.003.11517-.0177.05762-.0128.11517-.0177.05761-.003.11517-.006.11518-.0177.0576-.0144.11518-.0288.05762-.0144.0576-.0176.11519-.0369.11517-.0399.0576-.0208.05762-.0257.05762-.024.11056-.0576.04783-.0353.04316-.0352.0576-.0928.02533-.11033.0072-.0576.01892-.11517.01273-.0576.0179-.11517.0029-.0576.0013-.11191v-.11844l-.08637.016-.08987.0337-.0541.0224-.0576.0303-.05761.0257-.05762.0304-.11517.0496-.05761.0207-.05762.0208-.11518.0385-.11517.0383-.05762.0192-.11517.0335-.11518.0241-.11517.0224-.05761.0128-.11517.0175-.05762.003-.11517.001h-.51835l-.11518-.001-.0576-.003-.11518-.0175-.0576-.0144-.11518-.0288-.05762-.0144-.0576-.0176-.11518-.0401-.0576-.0257-.05762-.0255-.05762-.0321-.05762-.0319-.11517-.0751-.05762-.0417-.11517-.0959-.05761-.0543-.11057-.1136-.09268-.11517-.07027-.11517-.0271-.0576-.03217-.0576-.0254-.0576-.0576-.11517-.0305-.0576-.04669-.11517-.01556-.0576-.0179-.0576-.02698-.11517-.02252-.11517-.02252-.11517-.01257-.0543-.0098-.0576-.0081-.0321-.0043-.0864h4.26157V35.92057l-.0013-.11517-.0029-.0576-.0179-.11517-.01258-.0576-.02252-.11517-.02252-.11518-.02697-.11517-.01617-.0576-.01437-.0576-.03675-.11518-.0208-.0576-.04949-.11517-.0305-.0576-.02712-.0576-.06567-.11517-.03675-.0576-.08008-.11518-.0956-.11517-.05467-.0576-.11348-.11046-.11517-.09594-.05761-.04165-.11518-.07513-.11517-.0656-.05761-.02719-.05761-.03035-.11518-.04963-.05762-.0208-.11517-.03675-.0576-.01439-.11518-.02877-.05762-.01439-.11517-.0177-.11517-.0096-.11518-.01754-.0576-.0128-.11518-.0177-.05762-.0029zm18.31246.0001l-.11518.005-.11517.0177-.0576.01273-.11519.0177-.05762.0029-.11517.0036-.0576.0029-.11518.0177-.05762.01273-.0576.01122-.11518.02238-.05762.01122-.0576.01439-.05762.01273-.11517.03359-.05762.02236-.11518.04474-.11517.04488-.11517.05114-.11517.06402-.05762.03675-.11518.07997-.11517.09594-.11517.11034-.11349.11516-.10426.11518-.04603.0576-.04208.0576-.07479.11517-.06567.11517-.0271.0576-.0323.0576-.02533.0576-.03049.0576-.02418.0576-.02532.0576-.04035.11518-.03158.11517-.01617.0576-.02697.11518-.02252.11517-.02252.11517-.01257.0576-.0179.11517-.0029.0576-.0013.0576-.0013.11517-.0029.0576-.01792.11517-.01273.0576-.01778.11517-.0029.0576-.0013.0576.0043.11517.008.0576.02252.11517.01791.11517.0029.0576.0013.0576v.11517l.0043.11517.008.0576.02252.11517.02252.11518.02418.11517.03337.11517.019.0576.03856.11517.03855.11518.02072.0576.02072.0576.0254.0576.0259.0576.03172.0576.03215.0576.0369.0576.07491.11518.0783.11518.04207.0576.0956.11517.11056.11045.11518.0975.05761.0431.11518.0848.0576.0417.05763.0337.0576.0335.05762.0257.05762.0255.11517.0449.0576.024.11518.0432.11517.0337.05762.0127.05762.0144.11518.0192.0576.006.11518.0191.0576.0128.11518.0177.05762.003.0576.001h.23036l.11517-.001.0576-.003.11518-.0177.05761-.0128.05762-.0111.11518-.0224.05762-.0128.11517-.0337.11517-.0383.05761-.0208.11517-.0463.05761-.0257.05762-.0319.05761-.0321.11169-.072.08987-.064.08638-.072.0043.0863.008.0321.0099.0543.02072.0864.01437.0864H84.47746V33.90558l-.08638-.02553-.0323-.01294-.05762-.01913-.0541-.0192-.11516-.03835-.05761-.0177-.05762-.01754-.11518-.03035-.0576-.0128-.05762-.0144-.05762-.01122-.11517-.0223-.05762-.01122-.11517-.02238-.0576-.0081-.11518-.005h-.11518l-.05762-.0013-.0576-.0029-.11518-.0177-.0576-.01273-.11518-.01762-.05762-.0029-.11518-.0013zm-28.39006.0001l-.11517.0013-.05761.0036-.11518.01754-.0576.0128-.11518.0177-.05761.0029-.11518.0013-.11517.0013-.05762.0029-.11517.0177-.11518.02237-.0576.008-.11518.0096-.11517.0177-.11517.0241-.11517.0223-.05761.01122-.11518.02719-.05761.01595-.05761.0128-.05761.01596-.05761.0128-.11191.03036-.11843.03517v5.75872H52.74695v-5.18278l.11843-.001.05761-.004.11192-.0175.0576-.0128.11518-.0191.05761-.006.11517-.0191.05761-.0128.11518-.0175.0576-.004.11518-.001h.57589l.11517.001.05762.004.11517.0175.05761.0144.11518.0288.0576.0144.11518.0368.05761.0225.11518.0576.11517.0734.05603.0417.0543.0463.04964.0496.08807.11034.07344.11517.05762.11518.02252.0576.0351.11517.01294.0576.0223.11517.01122.0576.01278.0576.01765.11517.0029.0576.0013.11517V39.66385h.86378v-4.08862l-.0013-.0576-.0029-.0576-.01766-.11517-.01278-.0576-.0095-.0576-.01611-.11518-.0095-.0576-.0095-.0576-.0272-.11517-.01594-.0543-.01437-.0576-.03517-.11844.08638-.0144.03208-.01.0576-.016.11191-.0368.05761-.0192.11518-.0383.05762-.0192.05761-.0192.11517-.0335.11517-.0241.11518-.0224.0576-.0128.11518-.0175.0576-.004.11519-.001h.34558l.11517.001.0576.004.11518.0175.0576.0144.05763.0128.0576.0159.05763.0144.11517.0369.05762.0224.11518.0576.0576.0352.05762.0383.11517.088.05589.0496.05466.0544.09268.11348.03517.0576.06222.11517.0305.0576.04668.11517.03337.11517.01257.0576.01437.0576.0179.11517.0043.11517v3.91587h.86392v-4.14622l-.0021-.11517-.0029-.0576-.0179-.11517-.01436-.0576-.01257-.0576-.01617-.0576-.02877-.11518-.01257-.0576-.01791-.0576-.01556-.0576-.04668-.11517-.0305-.0576-.02712-.0576-.06847-.11518-.04208-.0576-.03971-.05762-.08818-.11034-.0973-.09594-.05466-.04165-.11349-.0784-.11517-.07512-.11517-.06567-.05761-.02712-.11517-.04315-.11518-.03848-.11517-.03517-.05761-.0144-.11517-.02876-.05762-.0144-.11517-.01753-.11517-.005-.11518-.005-.11517-.01754-.05762-.01281-.11517-.0177-.05761-.0029-.11518-.0013-.11517.0013-.05761.0029-.11518.0177-.0576.0128-.11518.01755-.11517.005-.11517.005-.11518.01754-.0576.01439-.11518.02877-.05762.0128-.0576.01596-.11518.02877-.0576.01439-.05763.01754-.0576.0177-.05763.0192-.11517.03835-.11518.03848-.11517.0415-.11517.04007-.05761.01114h-.05762l-.11517-.03194-.05762-.02877-.11518-.05762-.0576-.02561-.05762-.03035-.0576-.02395-.05763-.02566-.11517-.04006-.05762-.0159-.05761-.01294-.11517-.0223-.05762-.01122-.05761-.01281-.11517-.01754-.05761-.0036-.11517-.0029-.05761-.0036-.11518-.01754-.05761-.01281-.11517-.0177-.11518-.005h-.0576zm-23.72557.0001l-.11517.005-.11517.0177v-.0002l-.0576.01281-.11516.0177-.0576.0029-.11516.0065-.0576.008-.11517.0241-.11517.02877-.0576.01439-.05758.01754-.11517.04006-.11518.04963-.05759.03035-.11517.05762-.05759.02553-.05758.03208-.05759.02719-.11517.07027-.0576.04488-.05757.0479-.11517.11045-.0576.0576-.05758.05763-.11045.11517-.09594.11517-.07997.11517-.03678.0576-.06557.11518-.02722.0576-.0576.11517-.03036.0576-.0496.11517-.02082.0576-.04004.11518-.03678.11517-.01596.0576-.01281.0576-.02228.11518-.02408.11517-.01765.11518-.0095.11517-.01757.11517-.01281.0576-.01765.11517-.0032.0576-.0016.11517V36.9005l.0016.11518.0032.0576.01765.11517.0128.0576.01758.11518.0095.11517.01765.11517.02408.11518.02228.11517.0128.0576.01597.0576.03678.11517.04004.11518.02082.0576.0496.11517.03037.0576.05759.11517.02722.0576.06557.11517.03678.0576.07997.11517.09594.11517.11045.11518.05759.0576.11517.11034.11517.0928.05758.0368.11518.0704.11517.0687.11517.0576.11518.0432.05759.0192.11517.0383.11517.0385.05759.0175.05758.0159.11518.0192.11517.01.05759.008.11517.0225.05759.01.05758.008.11517.005h.34552l.11517-.005.05759-.008.11517-.0224.05758-.01.0576-.01.05758-.006.11518-.0192.11517-.0272.05759-.016.11517-.0319.11517-.0401.05758-.0241.11518-.0479.05759-.0241.11517-.0576.0576-.0335.11516-.0688.0576-.0367.11516-.0928.11518-.11033.05759-.0576.05759-.0576.11033-.11518.0928-.11517.03677-.0576.07041-.11517.07041-.11517.064-.11518.05117-.11517.02082-.0576.04004-.11517.01913-.0576.0352-.11517.03037-.11517.01281-.0576.01442-.0576.02238-.11517.02238-.11517.01281-.0576.01767-.11517.0032-.0576.0016-.0576v-.97896l-.0016-.11518-.0032-.0576-.01767-.11517-.0128-.0576-.01126-.0576-.02228-.11517-.01125-.0576-.01442-.0576-.02879-.11517-.01439-.0576-.03678-.11518-.02082-.0576-.0496-.11517-.03037-.0576-.02564-.0576-.03194-.0576-.05758-.11518-.02722-.0576-.06872-.11518-.08165-.11517-.04477-.0576-.04319-.0576-.0975-.1136-.05445-.05445-.1136-.09594-.05758-.04165-.11517-.0784-.11517-.07513-.05758-.03675-.0576-.03208-.05758-.03194-.0576-.02567-.05757-.02553-.0576-.0208-.11516-.03992-.11518-.0369-.05758-.01754-.11517-.03035-.05758-.01281-.0576-.0144-.11517-.01753-.11517-.0065-.05758-.0036-.11517-.01754-.0576-.01281-.11517-.0177-.05759-.0029zm57.75908 0l-.11517.0013-.0576.0029-.11518.0177-.05762.01273-.11517.01762-.05761.0029-.05761.0013h-.11517l-.11517.005-.05762.008-.11517.02252-.05761.0096-.05761.0096-.05762.0065-.11517.0192-.05761.01274-.05761.01122-.11518.02238-.05761.01122-.05762.01273-.05761.01122-.11517.02236-.05761.01122-.1118.02238-.03215.008-.08638.005-.05761.05747v5.75867H86.83797V34.4809l.11855-.005.1118-.0177.11517-.0224.0576-.008.11518-.01.05762-.008.11517-.0224.11517-.0175.0576-.004.11519-.001h.51834l.11517.001.05761.004.11518.0175.0576.0128.11518.0224.0576.0111.11518.0288.11517.0401.0576.0257.05762.0255.11517.0688.11518.0928.05582.0543.10426.1136.0461.0576.07717.11517.0576.11517.03972.11517.01437.0576.0161.0576.01274.0576.01437.0576.01778.11517.0029.0576.0013.0576V39.66306H90.7537v-4.14619l-.0013-.0576-.0029-.0576-.01778-.11517-.01273-.0576-.02252-.11517-.02238-.11517-.02712-.11518-.01791-.0576-.01553-.0576-.04654-.11517-.03057-.0576-.02697-.0576-.07027-.11517-.09268-.11518-.11055-.11517-.05761-.05603-.05762-.0543-.11517-.09279-.11517-.07042-.05761-.02719-.05762-.03036-.11518-.04963-.11517-.0415-.05762-.01934-.05761-.01913-.11517-.03366-.05762-.0128-.11518-.0223-.05761-.01123-.05761-.0128-.11517-.0177-.05762-.0029-.11517-.0013-.05761-.0013-.05762-.0029-.11518-.01763-.0576-.01273-.11518-.0177-.0576-.0029-.11518-.0013zm-51.59734.0002l-.11517.0013-.0576.0036-.11517.01753-.05758.01281-.11517.0177-.05759.0029-.11517.0013-.11518.0013-.05758.0029-.11517.0177-.05758.01281-.11517.01913-.05758.0065-.11518.01921-.05758.01273-.0576.01122-.11516.02236-.0576.01122-.05757.01273-.0576.01122-.11516.02236-.0576.01122-.11516.02712-.05433.01611-.0576.0144-.11842.03517v5.75862H35.18333V34.4808l.11844-.001.05759-.003.1119-.0177.0576-.0127.11517-.0192.05759-.006.11517-.0192.05759-.0127.11517-.0177.05759-.003.05758-.001H36.73817l.11517.001.0576.003.11516.0177.0576.0127.11517.0225.11517.0239.05759.016.11517.0417.05759.0272.11517.0656.05759.0383.11517.088.05601.0496.05443.0544.09268.1136.06884.11518.02564.0576.02553.0576.04005.11517.01598.0576.02069.11517.0065.0576.01913.11517.01281.0576.01767.11517.0032.0576.0016.11517v3.68554H39.15688V35.6915l-.0016-.11517-.0032-.0576-.01765-.11518-.01281-.0576-.01913-.11517-.0065-.0576-.01913-.11517-.02722-.11518-.01754-.0576-.01595-.0576-.04645-.11517-.03037-.0576-.02564-.0576-.03194-.0576-.02722-.0576-.07041-.11518-.04477-.05761-.10235-.1136-.05601-.05445-.11517-.09595-.0576-.04165-.11517-.07514-.05759-.03208-.05758-.03194-.05759-.02567-.11517-.04632-.05759-.0208-.11517-.03834-.11517-.03366-.05758-.0128-.11518-.02239-.11517-.02394-.11517-.0177-.0576-.0029-.05757-.0013-.11518-.0013-.05758-.0036-.11517-.01754-.05758-.0128-.11518-.0177-.11517-.005zm5.98898 0l-.11518.0013-.05758.0036-.11517.01753-.05758.01281-.11518.0177-.11517.0065-.05759.0029-.11517.0177-.11517.02712-.05758.01595-.0576.01453-.11517.03676-.11517.04632-.05758.02394-.0576.0305-.05757.02712-.11517.07042-.0576.04474-.11517.10247-.11033.11348-.04803.05761-.04476.05762-.06884.11518-.05118.11517-.02082.0576-.0351.11517-.01923.11517-.0048.11518v.46073l.0048.11518.01924.11517.03352.11518.03993.11517.02249.0576.05759.11518.07682.11517.04634.0576.10392.11517.1136.11045.11517.0928.05758.0368.11518.0704.05758.0351.11517.064.05758.0272.11517.0465.11517.0463.11518.0447.11517.0367.11517.0305.0576.0143.05758.0177.0576.0175.05758.0192.17276.0576.28793.0959.11518.0385.05759.0208.05758.0224.11517.0576.05758.0352.11517.08.0576.0463.11359.10404.05444.0559.0911.11517.03205.0576.0271.0576.01769.0576.03036.11518.0128.0576.0063.11518-.02227.11517-.01923.0576-.05118.11517-.03363.0576-.0911.1136-.05444.0545-.1136.0928-.05759.0351-.05759.0337-.05759.0257-.11517.0463-.11517.0352-.05759.0112-.05759.008-.11517.01-.0576.008-.11516.0224-.11518.0177-.11517.003-.05758-.003-.11518-.0177-.05758-.0127-.11517-.0177-.11517-.006-.05758-.003-.11518-.0177-.05758-.0127-.11517-.0225-.11517-.0224-.11518-.0271-.05758-.0161-.11517-.0319-.11517-.0401-.0576-.0255-.05758-.0241-.11517-.0559-.05758-.0305-.11192-.0447-.08964-.0225-.08638-.005-.0047.0863-.0081.0319-.0095.0576-.0128.0545-.01758.11517-.0032.0576-.0016.11518v.28793l.08638.0288.03206.0176.11191.0463.0576.0208.05757.0208.0576.0192.11516.0383.11518.0385.05759.0175.05758.016.05759.0128.11517.0224.11517.0241.11517.0175.0576.003.11516.006.11518.0177.05758.0128.11517.0175.05758.003.11517.001H42.49688l.11517-.001.05758-.003.11517-.0175.05758-.0128.11518-.0192.05758-.006.11517-.0191.11517-.0272.0576-.016.11516-.0319.11518-.0401.05757-.0256.0576-.0239.05757-.0304.0576-.0272.11516-.0704.0576-.0447.05758-.0481.11518-.11033.05601-.0576.05444-.0576.0911-.11517.06243-.11518.04323-.11517.01921-.0576.01913-.0576.03366-.11517.01921-.11518.005-.11517V37.93764l-.005-.11517-.0081-.0576-.01114-.0576-.01595-.0576-.04006-.11517-.02553-.0576-.05444-.11518-.02721-.0576-.07041-.11517-.09268-.11517-.11045-.11045-.11517-.0959-.05758-.0416-.11518-.0751-.11517-.0656-.05759-.0272-.11517-.0576-.05759-.0319-.05758-.0257-.05759-.0303-.11517-.0496-.0576-.0208-.05757-.0207-.0576-.0193-.11516-.0383-.28793-.0959-.11518-.0385-.05759-.0191-.11517-.0385-.05758-.0207-.05759-.0208-.05759-.0241-.11517-.0463-.05758-.0224-.11518-.0512-.05758-.0304-.05759-.0352-.05759-.0383-.05759-.0416-.1136-.0959-.05432-.0545-.0928-.1136-.0352-.0576-.03362-.0576-.02397-.0576-.0352-.11518-.0095-.0576v-.11517l.01923-.11517.01752-.0576.02238-.0576.06883-.11518.0991-.11033.1136-.0928.11516-.0688.0576-.0255.11516-.0465.11518-.0351.11517-.0208.11517-.016.0576-.01.05757-.0128.11517-.01754.0576-.0029h.11517l.05758.0029.11517.01754.05758.0128.11518.0177.05758.003.11517.003.05759.004.11517.0175.11518.0241.11517.0224.05759.0111.11517.0272.05758.016.0576.0144.05757.0176.11517.0352.05433.016.0576.0112.03204.008.08638.005.04162-.0864.0032-.0319.02397-.11202.01125-.05762.01281-.05761.01767-.11517.0032-.05761.0016-.11192v-.12033l-.08638-.01431-.03205-.0096-.05758-.01595-.05433-.01762-.11517-.0351-.11517-.0305-.05758-.01273-.0576-.0144-.05757-.01121-.11518-.02236-.11517-.02394-.11517-.0177-.11518-.005h-.11517l-.05759-.0013-.05758-.0029-.11517-.0177-.0576-.01281-.11517-.01754-.05758-.0036-.05759-.0013zm26.77753.05724l-.05761.0013-.05762.0029-.11517.0177-.11518.02238-.05762.008-.11517.0096-.11517.01762-.11517.0241-.11518.0223-.05762.01122-.11517.0272-.0576.01594-.05762.0144-.05762.01753-.11168.03676-.0323.01294-.08626.02553v5.75863h.86385V34.4809l.08638-.0144.03215-.008.1118-.0225.11516-.016.11518-.0191.0576-.0128.11519-.0177.0576-.003.05763-.001h.92147l.11517.005.05409.008.0576.0112.11867.0337.01431-.0865.0208-.08952.01774-.11202.0029-.05747.0013-.05762V33.61787H69.38903zm-23.72545.1148V37.59091l.0013.11518.0029.0576.01762.11517.01278.0576.01757.11517.0065.11517.0029.0576.0177.11517.02719.11517.01595.0576.01437.0576.03675.11517.0208.0576.02553.0576.02569.0576.03193.0576.03208.0576.07513.11517.04165.0576.09594.11518.11045.11045.11517.0959.05762.0416.11517.0736.11518.0576.11517.0432.05762.0192.11517.0368.0576.0159.11518.0208.0576.006.11519.0191.0576.0128.11518.0177.05761.003.11517.001h.34556l.11518-.005.11517-.0177.05761-.0128.05762-.01.11517-.016.05761-.01.05761-.01.05762-.0144.11518-.0288.0576-.0144.11519-.0368.0576-.0208.11518-.0496.0576-.0303.05762-.0272.11517-.0656.1119-.072.08965-.064.08638-.072.005.11844.01754.10876.0208.0895.01437.0864h.8062V33.73004H49.52215v4.43416l-.0065.11517-.03517.1136-.07997.10404-.05273.0479-.05603.0431-.11517.0848-.05761.0416-.11518.0687-.05761.0272-.05761.0321-.05762.0255-.05761.0303-.11517.0465-.05761.016-.05762.0176-.11517.0272-.11517.0224-.11518.0224-.05762.0128-.11517.0177-.05761.003-.11517.001-.11518-.005-.11517-.0176-.0576-.0144-.11519-.0288-.0576-.0144-.11518-.0368-.05762-.0224-.11517-.0576-.05762-.0352-.0576-.0383-.11035-.0879-.09594-.10404-.08008-.1136-.06869-.11517-.03208-.0576-.02397-.0576-.0241-.0576-.01584-.0576-.0177-.0576-.0272-.11517-.01912-.11517-.0065-.0576-.01913-.11517-.01278-.0576-.01757-.11517-.0036-.0576-.0013-.11517v-3.62796h-.51831zm50.38803 0l-.11517.0065-.11518.03517-.11056.07996-.0973.10876-.04496.0577-.09729.11506-.11056.11527-.11517.11518-.11518.11506-.05589.0577-.05467.0576-.09729.11517-.04496.0576-.0973.11517-.05466.0576-.11349.11517-.11517.11506-.0576.0577-.11057.11506-.09729.11529-.04495.0575-.09729.11528-.11055.11517-.05762.0576-.11517.11517-.1135.11506-.05465.0577-.0495.0576-.08637.11517-.0605.11507-.01436.0577v.0576l.01437.0575.06049.11528.04028.0575.09448.11528.09909.11518.04769.0576.04495.0575.09616.11529.05063.0575.09616.11527.04503.0575.09616.11529.05063.0575.09617.11528.04496.0575.09616.11528.05064.0575.09616.11529.09279.11517.04834.0576.09909.11516.09268.11507.09617.11529.05064.0575.09617.11528.04495.0575.09616.11528.09909.11518.09269.11505.09268.11529.09268.11517.04496.0576.09729.10876.11056.08.11517.0353.11518.006h.63351l.23034-.0001-.04323-.0864-.02697-.0319-.0387-.0576-.08638-.11201-.09616-.11518-.05064-.0576-.09617-.11517-.04496-.0576-.09617-.11518-.05064-.0576-.09616-.11517-.04503-.0576-.09616-.11517-.05064-.0576-.09616-.11517-.09268-.11517-.09909-.11518-.09617-.11517-.04495-.0576-.09616-.11518-.05064-.0576-.09616-.11518-.04503-.0576-.09616-.11517-.05064-.0576-.09616-.11518-.04496-.0576-.09617-.11517-.05064-.0576-.09616-.11517-.04503-.0576-.09616-.11518-.05064-.0576-.09616-.11348-.08986-.0992-.0236-.0303-.08176-.0449v-.11517l.08638-.0447.03229-.0304.05761-.0463.05409-.0529.11517-.1136.11517-.11517.0559-.0576.05465-.0576.0973-.11518.04495-.0576.0973-.11517.05473-.0576.11338-.11517.11517-.11518.05762-.0576.11056-.11517.0973-.11517.09278-.11517.04948-.0576.11056-.11517.05761-.0576.11517-.11517.05762-.0576.05762-.0576.11056-.11517.04963-.05761.0477-.05761.09278-.11517.10246-.11517.05128-.05431.04604-.05761.03056-.03208.04489-.0864H95.99442zm-65.706.63386h.28793l.05758.001.0576.003.11517.0177.11517.0239.11517.0239.05758.0144.0576.0208.11516.0465.0576.0239.11516.0591.11518.0752.11033.0847.09763.0881.04477.0479.09279.10403.08795.11349.07041.11517.02722.0576.03037.0576.0496.11518.0415.11517.01923.0576.01923.0576.03352.11517.01291.0576.02228.11518.01124.0576.01281.0576.01751.11517.0032.0576.0016.11517V37.07196l-.0016.0576-.0032.0576-.01751.11517-.01281.0576-.01124.0576-.02228.11518-.01291.0576-.03352.11517-.01923.0576-.01923.0576-.0415.11517-.0496.11518-.03037.0576-.02722.0576-.0352.0576-.07524.11517-.08469.1136-.04319.0545-.09763.0975-.11034.0881-.05759.0399-.05759.0417-.11517.0672-.05758.0257-.05759.0255-.11517.0401-.05759.0176-.05758.0144-.11517.0288-.05758.0144-.11518.0177-.11517.005h-.40309l-.11518-.001-.05759-.003-.11517-.0177-.0576-.0144-.05757-.0128-.11517-.0335-.11518-.0465-.05758-.0303-.11517-.0576-.05758-.0272-.11518-.0703-.11517-.0928-.056-.0545-.05445-.056-.09594-.11517-.07997-.11518-.03678-.0576-.03206-.0576-.06074-.11518-.03037-.0576-.02238-.0576-.02408-.0576-.01595-.0576-.03037-.11517-.01595-.0576-.0128-.0576-.01596-.0576-.02722-.11517-.0095-.0576-.0128-.11518-.0048-.0576-.01755-.11517-.0128-.0576-.01768-.11517-.0032-.0576-.0016-.11518v-.0576l.0016-.11517.0032-.0576.01767-.11517.01281-.0576.01754-.11517.0095-.11517.01767-.11518.0144-.0576.0128-.0576.03037-.11518.01752-.0576.03678-.11517.04004-.11517.02238-.0576.0576-.11517.07197-.11518.03835-.0576.0784-.11517.08806-.11033.10393-.0976.1136-.088.05759-.0399.05758-.0417.11517-.0671.05758-.0257.05759-.0257.11517-.0399.05759-.016.05759-.0128.11517-.0224.11518-.0241.11517-.0175zm33.63042 0h.5184l.11518.005.05762.008.05762.0112.0576.016.11518.0399.0576.0257.11518.0545.05762.0271.05761.0352.05761.0352.05762.0447.11337.10246.10258.11349.04488.0576.03517.0576.06207.11517.03057.0576.0495.11517.0208.0576.03674.11518.01437.0576.02877.11517.01437.0576.0179.11517.0029.0576.0013.11518v.2303h-3.39777l.0043-.11831.01791-.11202.02418-.11518.0218-.11517.01331-.0576.03337-.11517.03856-.11517.02072-.0576.04611-.11518.0259-.0576.03172-.0576.06905-.11517.08008-.11517.0956-.11517.05467-.0559.0559-.0544.11516-.0928.11517-.0704.05762-.0271.11518-.0545.05762-.0257.11517-.0399.05761-.016.05761-.0112.05761-.008zm18.37003.0001H82.86488l.11517.001.0576.003.11518.0176.05762.0127.0576.0112.11518.0224.05409.0112.08987.0207.08638.0144V38.28138l-.0013.0576-.0043.0576-.03517.11518-.07997.11044-.10887.0959-.05762.0417-.11518.0751-.05762.0321-.0576.0319-.05762.0257-.05762.0255-.11517.0401-.05761.0176-.05762.0144-.11518.0288-.05762.0144-.11517.0177-.0576.003-.11518.001h-.28796l-.11517-.001-.05761-.003-.11517-.0192-.11518-.0337-.05761-.0191-.11517-.0401-.05762-.0224-.11517-.0576-.05762-.0352-.11517-.08-.11517-.0959-.11057-.11045-.0956-.11518-.04209-.0576-.07479-.11517-.03229-.0576-.03172-.0576-.0259-.0576-.0461-.11517-.02073-.0576-.03856-.11517-.03337-.11517-.0133-.0576-.0218-.11517-.01157-.0576-.01257-.0576-.0179-.11517-.0029-.0576-.0013-.11517v-.74863l.0013-.11517.0029-.0576.0179-.11517.01257-.0576.01156-.0576.0218-.11518.02877-.11517.04035-.11517.02418-.0576.0218-.0576.02598-.0576.02418-.0576.0587-.11518.07197-.11517.07828-.11517.04208-.0576.0956-.11034.11057-.0959.05762-.0416.11517-.0752.05762-.0319.11517-.0607.0576-.0305.05763-.0239.0576-.0257.11519-.0399.0576-.016.05762-.0128.11517-.0224.05762-.0112.11517-.0224.05761-.008zm-8.11967 1.61242l.17624.00029H75.95461l.05761.001.05762.003.11516.0177.05762.0127.11517.0224.11518.0225.11517.0271.0576.0176.05763.016.11517.0465.0576.0303.11518.0576.0576.0272.05763.0351.0576.0352.05762.0449.11348.10235.10246.1136.04503.0576.0351.0576.05927.11517.0254.0576.04028.11517.01556.0576.01958.11518.0029.0576.0013.0576v.28794l-.0043.11518-.01958.11518-.0351.11517-.0461.11517-.0259.0576-.06848.11518-.04503.0576-.10246.11034-.11348.0959-.11518.08-.05762.0352-.11517.0576-.0576.0224-.11518.0401-.11518.0368-.0576.016-.05763.0128-.11517.0224-.0576.0112-.05763.0127-.11517.0177-.05762.003-.0576.001h-.17279l-.11517.001-.05762.004-.11518.0175-.05762.0128-.11517.0177-.0576.003-.11518.001h-1.1519V36.15322z" fill="#ec0000"/></svg>